<?xml version="1.0" encoding="UTF-8"?>
<svg width="1024.00" height="1024" viewBox="0 0 1024.00 1024"
     version="1.1" xmlns="http://www.w3.org/2000/svg" xmlns:xlink="http://www.w3.org/1999/xlink"
     style="background-color: transparent;">
<defs>
</defs>
<!-- Layer: Canvas -->
<g id="layer_1" opacity="1.0">
<path d="M0.0,0.0 L1023.999984,0.0 L1023.999984,1024.0 L0.0,1024.0 Z" fill="#FFFFFF"/>
</g>
<!-- Layer: Layer 1 -->
<g id="layer_2" opacity="1.0">
<path d="M231.54775828460038,0.0 L792.4522417153996,0.0 C920.2666042884991,0.0 1024.0,103.73339571150098 1024.0,231.54775828460038 L1024.0,792.4522417153996 C1024.0,920.2666042884991 920.2666042884991,1024.0 792.4522417153996,1024.0 L231.54775828460038,1024.0 C103.73339571150098,1024.0 0.0,920.2666042884991 0.0,792.4522417153996 L0.0,231.54775828460038 C0.0,103.73339571150098 103.73339571150098,0.0 231.54775828460038,0.0 Z" fill="#000000" stroke="none" stroke-width="1.0"/>
<g id="group_AF1A1EEF-D8DD-4118-AF35-CBE72975CC41">
<path d="M632.7776248746702,145.42855047732445 C638.528276067449,149.20758434150855 641.4036016638383,153.3973827561473 641.4036016638383,157.99794572124097 C641.4036016638383,159.3123922826963 640.4177757450764,163.91295524778997 638.4461239075522,171.79963461652181 C636.474472070028,179.68631398525383 635.4886461512658,191.8449446787156 635.4886461512658,208.2755266969071 C635.4886461512658,213.53331294272846 634.9957331918849,257.40296693129983 634.0099073571869,339.88448855630406 C635.3243418314723,338.5700421011659 653.0692083691898,322.3037659031563 687.2445068862758,291.08566006859246 C715.5048498907888,264.7967288394859 732.0995861899506,251.65226322493265 737.028715642006,251.65226327850348 C754.4449736818913,251.65226322493265 762.824493991369,262.33214153675726 762.1672767121942,283.69189816040625 L762.1672767121942,288.62107276586363 C748.0371052099379,296.8363637749594 729.7993257128393,309.8165235693307 707.4539382208985,327.56155214897774 C679.1935952163852,349.57853205335437 665.0634237141285,364.2017500495448 665.0634237141285,371.43120613754905 C665.0634237141285,372.0884294182767 673.9358569829874,382.43969608973737 691.680723520705,402.48500615193103 C708.4397641396605,421.5444812930333 718.9552406064561,433.3745003461312 723.2271529210918,437.9750633112248 C742.9436712963336,458.67759665414616 761.3457551132259,472.8078971897908 778.4334043717688,480.36596491815897 L778.4334043717688,496.13932365562283 C765.946276067449,505.34044958581006 756.088016879828,509.9410125509036 748.8586266144052,509.94101238689495 C739.3289762608725,509.9410125509036 725.5274133982032,500.0826633399888 707.4539382208985,480.36596491815897 C694.6382012769914,466.56427602287806 681.9867686528777,452.5982813074152 669.4996403485579,438.4679807717706 C662.270250277636,429.92407812231096 650.7689478920785,417.92975324903114 634.9957335050644,402.48500588325356 L633.5169943137419,403.4708410730225 L633.5169943137419,446.8475776010483 C633.5169943137419,449.4764707239588 634.5849723924007,453.33765749823385 636.7209285497186,458.4311379238733 C638.8568847070364,463.5246183495126 639.9248627856953,467.55011094396957 639.9248627856953,470.50761570724404 C639.9248627856953,475.10817867233766 637.5424501486868,479.1336712667945 632.7776248746702,482.58409349061475 C628.0127996006535,486.03451571443503 623.1658221667398,487.7597268263451 618.2366928440769,487.7597267612361 C609.692867943658,487.7597268263451 602.6277821925295,484.96652788325247 597.0414353195446,479.38012999706746 C591.4550884465591,473.79373211088233 588.6619150100667,466.72858184306 588.6619150100667,458.18467919360035 L588.6619150100667,393.1195744015619 C588.6619150100667,389.17623471719594 589.2369801293446,383.17907228055606 590.3871103679003,375.12808709164216 C591.5372406064562,367.0771019027283 592.1123057257339,361.0799394660885 592.1123057257339,357.13659978172234 L592.1123057257339,224.5418028949167 C592.1123057257339,204.49649283272305 590.6335668475908,188.3945224548953 587.6760890913047,176.23589176143366 C586.3616545329551,170.64949387524842 585.7044372537805,166.37754255051863 585.7044372537805,163.42003778724415 C585.7044372537805,157.1764166203314 589.4834366090352,151.59001873414627 597.0414353195446,146.6608441286889 C603.6136081112917,142.0602811635951 610.1857809030391,139.75999968104838 616.757953972527,139.75999999999993 C621.6870832885967,139.75999968104838 627.0269736818913,141.6495166131404 632.7776248746702,145.42855047732445 Z" fill="#FFFFFF"/>
<path d="M417.47709402536003,273.686659087934 L415.99835529947984,293.403357545615 C428.1568748119492,274.01527072829776 443.1085679131742,264.3212273375647 460.85343444908904,264.3212274756123 C472.3547368364496,264.3212273375647 484.51325650118207,268.2645670219307 497.328993445089,276.1512463906626 C510.1447303889962,284.0379257593946 519.5100766172361,292.910440049218 525.4250321298086,302.76878926013296 C538.8979863528906,327.7432739277841 545.6344634644314,360.6044379641671 545.6344634644314,401.3522813692823 L545.6344634644314,472.82531314841543 C540.7053338706211,480.38338087678346 534.6260740382548,484.1624147409676 527.3966839238071,484.162414615231 C521.8103370943477,484.1624147409676 512.6092951859015,480.8762983373291 499.7935582419944,474.30406553005264 L499.7935582419944,468.3890560035037 C499.7935582419944,461.15959991549937 500.0400147216848,450.4797216036749 500.5329276810658,436.34942106803015 C501.02584064044686,422.2191205323854 501.2722971201374,411.8678538609248 501.2722971201374,405.2956210536482 C501.2722971201374,334.9727300157884 490.75682065334195,299.8112844968585 469.72586754446286,299.8112845706727 C463.81091220717815,299.8112844968585 457.07443509563717,304.4118474619521 449.5164363851279,313.61297339213934 C426.1852229744251,341.8735744634288 414.51961626907365,375.88487924108534 414.51961626907365,415.64688772510874 C414.51961626907365,421.23328561129404 415.5875943477327,429.5307295304807 417.72355050505047,440.53921948266895 C419.8595066623684,451.5477094348574 420.92748474102734,459.8451533540441 420.92748474102734,465.4315512402291 C420.92748474102734,470.03211420532284 418.7915285837094,473.8111480695068 414.51961626907365,476.7686528327813 C410.24770395443795,479.72615759605594 405.647183000215,481.204909977693 400.7180534842872,481.20490976984905 C381.0015350311627,481.204909977693 371.1432758435417,468.71766764386746 371.1432758435417,443.7431829762163 L371.1432758435417,340.72343372215545 C371.1432758435417,338.09454059924474 371.4718844831291,334.23335382496975 372.1291017623039,329.13987339933044 C372.7863190414786,324.046392973691 373.11492768106586,320.18520619941603 373.11492768106586,317.5563130765054 C373.11492768106586,313.61297339213934 372.539862561788,307.8622696857723 371.38973232323224,300.3042019574043 C370.23960208467656,292.74613422903616 369.6645369653986,287.15973634285103 369.6645369653986,283.54500829884887 C369.6645369653986,278.2872220530276 372.7041668815817,273.27589453747913 378.7834267139481,268.5110257522037 C384.8626865463142,263.74615696692814 390.36688125940253,261.36372257429036 395.29601106043685,261.3637226302305 C402.525400924135,261.36372257429036 409.91909531485055,265.4713680788382 417.47709402536003,273.686659087934 Z" fill="#FFFFFF"/>
<path d="M319.95818356672754,157.7573305034013 C326.8589649980621,162.6865051088588 330.30935571372936,167.94429135468016 330.30935571372936,173.53068924086517 C330.30935571372936,175.17374744268443 328.8306168355863,178.78847548668654 325.87313907930013,184.37487337287166 C324.55870452095064,187.00376649578232 323.24426996260127,194.3975284039684 321.9298354042517,206.5561590974301 C315.02905397291704,280.16516653892825 311.5786632572498,344.7373538704211 311.5786632572498,400.27272109190847 C311.5786632572498,414.731633267917 312.8930978155993,426.397346500833 315.52196693229814,435.2698607906564 C317.8222274094097,442.82792851902445 322.5870526834264,453.17919519048513 329.8164427543485,466.3236608050384 C330.1450513939358,466.98088408576615 330.30935571372936,467.96671900685755 330.30935571372936,469.2811655683129 C330.30935571372936,476.18201001595327 322.258444043839,479.6324322397735 306.1566204969888,479.63243207504377 L301.72040406962884,479.6324322397735 C284.9613634506734,479.30382059940973 274.77449562346504,465.8307433444926 271.15980058800415,439.2132004750223 C266.559279633781,406.68064807900316 264.2590191566695,361.8251591693403 264.2590191566695,304.64673374603365 C264.2590191566695,291.1736564911166 264.50547563635996,270.8818876986501 264.99838859574106,243.77142736863414 C265.4913015551221,216.66096703861803 265.73775803481266,196.20489242596955 265.73775803481266,182.4032035306886 C265.73775803481266,174.84513580232056 269.68106170986096,167.6156797143163 277.56766905995767,160.71483526667578 C285.4542764100544,153.81399081903527 293.1765794403575,150.3635685952151 300.7345781285116,150.3635688821273 C306.64953366343934,150.3635685952151 313.057402135393,152.82815589794387 319.95818356672754,157.7573305034013 Z" fill="#FFFFFF"/>
<path d="M702.3876305609283,673.7642444727031 L700.9088918350482,693.4809429303841 C713.0674113475178,674.0928561130669 728.0191044487426,664.398812722334 745.7639709846575,664.3988128603814 C757.2652733720179,664.398812722334 769.4237930367505,668.3421524066998 782.2395299806576,676.2288317754317 C795.0552669245646,684.1155111441637 804.4206131528047,692.9880254339871 810.3355686653772,702.8463746449021 C823.8085228884592,727.8208593125532 830.5450000000001,760.6820233489364 830.5450000000001,801.4298667540513 L830.5450000000001,872.9028985331847 C825.6158704061894,880.4609662615526 819.5366105738233,884.2400001257366 812.3072204593755,884.24 C806.7208736299162,884.2400001257366 797.5198317214698,880.9538837220983 784.7040947775627,874.3816509148216 L784.7040947775627,868.4666413882728 C784.7040947775627,861.2371853002686 784.9505512572534,850.5573069884438 785.4434642166343,836.4270064527993 C785.9363771760154,822.2967059171547 786.182833655706,811.945439245694 786.182833655706,805.3732064384171 C786.182833655706,735.0503154005576 775.6673571889105,699.8888698816274 754.6364040800312,699.8888699554417 C748.7214487427465,699.8888698816274 741.9849716312057,704.4894328467213 734.426972920696,713.6905587769086 C711.0957595099933,741.9511598481979 699.4301528046421,775.9624646258542 699.4301528046421,815.724473109878 C699.4301528046421,821.3108709960629 700.498130883301,829.6083149152498 702.6340870406189,840.616804867438 C704.7700431979367,851.6252948196266 705.8380212765958,859.9227387388132 705.8380212765958,865.5091366249983 C705.8380212765958,870.1096995900921 703.7020651192777,873.888733454276 699.4301528046421,876.8462382175504 C695.1582404900064,879.8037429808251 690.5577195357831,881.282495362462 685.6285900198556,881.2824951546181 C665.912071566731,881.282495362462 656.0538123791102,868.7952530286367 656.0538123791102,843.8207683609855 L656.0538123791102,740.8010191069245 C656.0538123791102,738.1721259840139 656.3824210186974,734.3109392097389 657.0396382978723,729.2174587840994 C657.6968555770469,724.1239783584601 658.0254642166343,720.2627915841853 658.0254642166343,717.6338984612745 C658.0254642166343,713.6905587769086 657.4503990973566,707.9398550705415 656.3002688588006,700.3817873421734 C655.1501386202449,692.8237196138055 654.5750735009669,687.23732172762 654.5750735009669,683.622593683618 C654.5750735009669,678.3648074377966 657.6147034171503,673.3534799222484 663.6939632495163,668.5886111369729 C669.7732230818826,663.8237423516973 675.2774177949709,661.4413079590595 680.2065475960053,661.4413080149997 C687.4359374597033,661.4413079590595 694.829631850419,665.5489534636074 702.3876305609283,673.7642444727031 Z" fill="#FFFFFF"/>
<path d="M577.5886460015448,688.2300027245526 C598.4552946153425,704.3319731023804 608.8886189222412,721.0911667609357 608.8886189222412,738.5075837002188 C608.8886189222412,760.1959519642315 599.1946640544139,777.4480630833325 579.8067543187595,790.263917057522 C562.7191050602166,801.7653244702559 542.3453694058002,807.5160281766231 518.685547518899,807.5160280138507 C514.0850264012869,807.5160281766231 506.6913320105714,804.7228292335305 496.5044643246028,799.13643130521 C497.8188987417125,830.3545371819093 507.01994065015856,845.9635900991912 524.1075899208578,845.9635899195235 C538.5663700505454,845.9635900991912 552.7786937126988,841.8559445946432 566.7445608951616,833.6406535855474 C580.7104280776247,825.4253625764517 589.6650135063803,821.3177170719039 593.6083170833027,821.3177170519181 C607.7384886836854,821.3177170719039 614.8035744348138,825.2610567562699 614.8035744348138,833.1477361250019 C614.8035744348138,849.5783181431934 603.6308806888434,862.3941721173826 581.2854931969027,871.5952980475699 C563.8692352987725,878.8247541355743 545.6314558016737,882.4394821795763 526.5721547432604,882.4394821699441 C475.9664242091528,882.4394821795763 450.66355896092585,853.6859636477413 450.66355896092585,796.178926584071 C450.66355896092585,772.5188884778752 456.41421015370486,746.2299572487686 467.91551253926247,717.3121328967517 C482.0456840415191,681.8220757374578 499.13333330006185,664.077047157811 519.1784604833797,664.0770471697098 C537.251935492196,664.077047157811 556.7219973877473,672.1280323467249 577.5886460015448,688.2300027245526 Z M509.81311408665124,719.7767201994803 C504.8839844928407,727.9920112085762 502.4194196959356,737.6860545993089 502.4194196959356,748.8588503716794 C502.4194196959356,755.1024715385921 504.5553758532533,760.1959519642315 508.82728816788904,764.1392916485972 C513.0992004825248,768.0826313329635 518.5212430357163,770.0543011751464 525.0934158498187,770.0543012467973 C549.081846517341,770.0543011751464 561.0760618622799,760.0316461440493 561.0760618622799,739.9863360818559 C561.0760618622799,731.7710450727601 558.6936492252714,723.9665186141191 553.9288239512545,716.5727567059331 C549.1639986772378,709.1789947977468 542.8382823651813,705.4821138436536 534.9516749321022,705.4821138692544 C524.1075899087015,705.4821138436536 515.7280695992237,710.2469826289291 509.81311408665124,719.7767201994803 Z" fill="#FFFFFF"/>
<path d="M406.3933984526112,571.9014820357565 C422.49522179239193,592.9326270190415 430.5461334622824,619.550169888512 430.5461334622824,651.7541106441673 C430.5461334622824,654.0543921267142 430.5461334622824,657.5048143505344 430.5461334622824,662.105377315628 C430.8747421018697,666.7059402807216 431.0390464216634,670.1563625045419 431.0390464216634,672.4566439870888 C431.0390464216634,679.686100075093 430.5461334622824,686.0940270621875 429.5603075435203,691.6804249483728 C416.74457059961316,767.5897138724179 380.7619245647969,805.54435833444 321.61236928402707,805.5443582285349 C291.3803745970341,805.54435833444 264.27016183107673,797.8219847858902 240.28173140029355,782.3772374629691 L240.28173114119915,792.7285043602507 C239.9531225016118,814.7454842646273 241.92477433913598,829.8616197213635 246.19668665377168,838.0769107304593 C252.4402508059316,849.5783181431934 255.56203288201158,856.15055095047 255.56203288201158,857.7936091522892 C255.56203288201158,864.3658419595657 253.0153159252095,870.1165456659328 247.92188201160536,875.0457202713902 C242.82844809800127,879.9748948768479 236.9956447453256,882.4394821795763 230.42347220340082,882.4394819497375 C215.63608317214698,882.4394821795763 205.6135196647324,877.1816959337553 200.3557814313346,866.6661234421126 C197.39830367504834,860.4225022751998 195.42665183752416,848.7567890422839 194.44082591876207,831.6689837433648 C193.78360863958733,820.4961879709945 193.45499999999993,807.6803339968051 193.45499999999993,793.2214218207962 C193.45499999999993,787.6350239346112 194.19436943907152,779.2554271053339 195.6731083172147,768.0826313329635 C197.1518471953578,756.909835560593 197.89121663442938,748.3659329111334 197.89121663442938,742.4509233845845 L197.89121663442938,708.9325360674737 C197.56260799484198,699.0741868565589 198.21982527401673,684.5331217704595 199.86286847195356,665.3093408091754 C201.50591166989034,646.0855598478913 202.32743326885884,631.8731064021555 202.32743326885884,622.6719804719683 L202.32743326885884,578.3094090228514 C202.32743326885884,577.6521857421236 200.6843900709219,568.7796714523001 197.39830367504834,551.6918661533809 C205.94212830431974,543.805186784649 213.99303997421015,539.861847100283 221.55103886078,539.861847365973 C230.42347195357831,539.861847100283 237.48855770470664,543.0658105938303 242.74629593810442,549.473737580925 C248.00403417150216,555.8816645680197 250.63290328820113,563.6861910266607 250.63290328820113,572.887316956848 C250.63290328820113,575.187598439395 250.46859896840743,577.4878799219415 250.1399905971861,579.7881616750204 C271.8281605415861,551.1989486928351 299.26698194713083,536.9043423370085 332.4564543351915,536.9043424690808 C363.674275306254,536.9043423370085 388.3199232753063,548.5700555699245 406.3933984526112,571.9014820357565 Z M267.39194390715664,620.2073931692396 C251.29012056737588,647.1535476790739 243.23920889748553,674.2640080090898 243.23920889748553,701.5387741592878 C243.23920889748553,747.2157921698602 266.24181366860086,770.0543011751464 312.2470233413575,770.0543011012805 C336.8926711798839,770.0543011751464 354.9661463571889,759.374422863322 366.4674487427467,738.0146662396728 C373.0396215344938,726.184647186575 379.28318568665384,704.660584742744 385.19814119922626,673.4424789081803 C386.1223529980657,667.5890840641995 386.61334051619923,664.6238774656038 386.67110355768347,664.5468592505442 L386.6768799181011,664.5699649032085 C386.6768800773695,641.8957614332523 383.2264893617022,622.5076746517866 376.3257079303675,606.4057042739588 C366.79605738233397,584.7173360099458 352.17297292069634,573.8731518779397 332.4564543351915,573.8731518812363 C307.15358929722754,573.8731518779397 285.4654190844616,589.3178989750395 267.39194390715664,620.2073931692396 Z" fill="#FFFFFF"/>
</g>
</g>
</svg>