<?xml version="1.0" encoding="UTF-8"?>
<svg xmlns="http://www.w3.org/2000/svg" xmlns:xlink="http://www.w3.org/1999/xlink" viewBox="0 0 1024 1024">
  <defs>
    <style>
      .cls-1 {
        fill: #c93b02;
      }

      .cls-1, .cls-2, .cls-3, .cls-4, .cls-5, .cls-6, .cls-7, .cls-8, .cls-9, .cls-10, .cls-11, .cls-12, .cls-13, .cls-14, .cls-15, .cls-16, .cls-17, .cls-18, .cls-19, .cls-20, .cls-21, .cls-22, .cls-23, .cls-24, .cls-25, .cls-26 {
        stroke-width: 0px;
      }

      .cls-2 {
        fill: #b8b9b8;
      }

      .cls-27 {
        clip-path: url(#clippath);
      }

      .cls-3 {
        fill: none;
      }

      .cls-4 {
        fill: #666;
        opacity: .5;
      }

      .cls-4, .cls-13 {
        mix-blend-mode: multiply;
      }

      .cls-4, .cls-28 {
        isolation: isolate;
      }

      .cls-5 {
        fill: url(#linear-gradient);
      }

      .cls-6 {
        fill: url(#radial-gradient);
      }

      .cls-7 {
        fill: url(#linear-gradient-11);
      }

      .cls-8 {
        fill: url(#linear-gradient-12);
      }

      .cls-9 {
        fill: url(#linear-gradient-13);
      }

      .cls-10 {
        fill: url(#linear-gradient-10);
      }

      .cls-11 {
        fill: url(#linear-gradient-15);
      }

      .cls-12 {
        fill: url(#linear-gradient-14);
      }

      .cls-13, .cls-15 {
        fill: #000;
      }

      .cls-14 {
        fill: #6ebe44;
      }

      .cls-16 {
        fill: url(#linear-gradient-4);
      }

      .cls-17 {
        fill: url(#linear-gradient-2);
      }

      .cls-18 {
        fill: url(#linear-gradient-3);
      }

      .cls-19 {
        fill: url(#linear-gradient-8);
      }

      .cls-20 {
        fill: url(#linear-gradient-9);
      }

      .cls-21 {
        fill: url(#linear-gradient-7);
      }

      .cls-22 {
        fill: url(#linear-gradient-5);
      }

      .cls-23 {
        fill: url(#linear-gradient-6);
      }

      .cls-24 {
        fill: #fffefe;
      }

      .cls-25 {
        fill: #fd5d00;
      }

      .cls-26 {
        fill: #fff;
      }
    </style>
    <clipPath id="clippath">
      <circle class="cls-3" cx="512" cy="512" r="400"/>
    </clipPath>
    <linearGradient id="linear-gradient" x1="111.07" y1="271.87" x2="912.93" y2="271.87" gradientUnits="userSpaceOnUse">
      <stop offset="0" stop-color="#e2e3f0"/>
      <stop offset="1" stop-color="#004bff"/>
    </linearGradient>
    <linearGradient id="linear-gradient-2" y1="447.19" x2="912.93" y2="447.19" xlink:href="#linear-gradient"/>
    <linearGradient id="linear-gradient-3" x1="111.07" y1="482.62" x2="912.93" y2="482.62" xlink:href="#linear-gradient"/>
    <linearGradient id="linear-gradient-4" x1="111.07" y1="481.6" x2="912.93" y2="481.6" xlink:href="#linear-gradient"/>
    <linearGradient id="linear-gradient-5" x1="111.07" y1="601.8" x2="912.93" y2="601.8" xlink:href="#linear-gradient"/>
    <linearGradient id="linear-gradient-6" x1="111.07" y1="475.87" x2="912.93" y2="475.87" xlink:href="#linear-gradient"/>
    <linearGradient id="linear-gradient-7" x1="111.07" y1="737.4" x2="912.93" y2="737.4" xlink:href="#linear-gradient"/>
    <linearGradient id="linear-gradient-8" x1="111.07" y1="535.14" x2="912.93" y2="535.14" xlink:href="#linear-gradient"/>
    <linearGradient id="linear-gradient-9" x1="111.07" y1="669.77" x2="912.93" y2="669.77" xlink:href="#linear-gradient"/>
    <linearGradient id="linear-gradient-10" y1="231.7" x2="912.93" y2="231.7" xlink:href="#linear-gradient"/>
    <linearGradient id="linear-gradient-11" y1="283.94" x2="912.93" y2="283.94" xlink:href="#linear-gradient"/>
    <linearGradient id="linear-gradient-12" x1="111.07" y1="594.92" x2="912.93" y2="594.92" xlink:href="#linear-gradient"/>
    <linearGradient id="linear-gradient-13" x1="111.07" y1="475.17" x2="912.93" y2="475.17" xlink:href="#linear-gradient"/>
    <linearGradient id="linear-gradient-14" x1="111.07" y1="711.47" x2="912.93" y2="711.47" xlink:href="#linear-gradient"/>
    <linearGradient id="linear-gradient-15" x1="111.07" y1="339.18" x2="912.93" y2="339.18" xlink:href="#linear-gradient"/>
    <radialGradient id="radial-gradient" cx="-1265.6" cy="-2314.93" fx="-1265.6" fy="-2314.93" r="25.62" gradientTransform="translate(2860.77 4816.81) scale(1.86)" gradientUnits="userSpaceOnUse">
      <stop offset="0" stop-color="#fff"/>
      <stop offset=".11" stop-color="#f7f7f7"/>
      <stop offset=".28" stop-color="#e1e1e1"/>
      <stop offset=".49" stop-color="#bebebe"/>
      <stop offset=".73" stop-color="#8c8c8c"/>
      <stop offset="1" stop-color="#4e4e4e"/>
      <stop offset="1" stop-color="#4d4d4d"/>
    </radialGradient>
  </defs>
  <g class="cls-28">
    <g id="Arcade">
      <rect class="cls-13" y="0" width="1024" height="1024" rx="143.49" ry="143.49"/>
      <g class="cls-27">
        <g>
          <path class="cls-15" d="M392.07,225.88l-10,16.67-7.1,14.51-11.42,14.51-5.86,10.18,14.51,20.06h7.1l17.28-2.78,12.96,5.86,1.54-4.32,8.64-2.78,5.86-1.54,5.86,12.96,5.86,8.64,5.86-5.86,5.86-11.42,2.78-20.06-4.45-8.12c-26.42-2.92-48.07-21.64-55.3-46.51Z"/>
          <path class="cls-5" d="M392.07,225.88l-10,16.67-7.1,14.51-11.42,14.51-5.86,10.18,14.51,20.06h7.1l17.28-2.78,12.96,5.86,1.54-4.32,8.64-2.78,5.86-1.54,5.86,12.96,5.86,8.64,5.86-5.86,5.86-11.42,2.78-20.06-4.45-8.12c-26.42-2.92-48.07-21.64-55.3-46.51Z"/>
          <path class="cls-15" d="M473.11,474.65l-.93-.62,81.07-69.06c-11.56-4.04-23.99-6.25-36.93-6.25-5.67,0-11.23.42-16.67,1.24l-6.48,6.48-7.1,10.18-7.1,7.1v10.19l12.96,17.28-8.64,4.32-5.86-7.1-11.42-7.1-20.06-1.54-8.64,4.32-1.54,5.86-8.64-1.54-5.3,2.39c-6.91,10.93-11.97,23.14-14.76,36.19l8.64,8.64h20.06l7.1-5.86,5.86-10.19,14.51-4.32,1.54,10.18,1.59.16,7.87-12.03-.2-.17-.93,1.23Z"/>
          <path class="cls-17" d="M473.11,474.65l-.93-.62,81.07-69.06c-11.56-4.04-23.99-6.25-36.93-6.25-5.67,0-11.23.42-16.67,1.24l-6.48,6.48-7.1,10.18-7.1,7.1v10.19l12.96,17.28-8.64,4.32-5.86-7.1-11.42-7.1-20.06-1.54-8.64,4.32-1.54,5.86-8.64-1.54-5.3,2.39c-6.91,10.93-11.97,23.14-14.76,36.19l8.64,8.64h20.06l7.1-5.86,5.86-10.19,14.51-4.32,1.54,10.18,1.59.16,7.87-12.03-.2-.17-.93,1.23Z"/>
          <path class="cls-15" d="M505.25,477.42c-6.37,1.42-12.01,4.45-16.58,8.54-.55.58-1.08,1.18-1.59,1.8l.59.06c4.7-4.95,10.75-8.62,17.57-10.4Z"/>
          <path class="cls-18" d="M505.25,477.42c-6.37,1.42-12.01,4.45-16.58,8.54-.55.58-1.08,1.18-1.59,1.8l.59.06c4.7-4.95,10.75-8.62,17.57-10.4Z"/>
          <path class="cls-15" d="M607.06,495.33l10.19-2.78,9.91,3.75c-1.3-10.31-4.01-20.18-7.92-29.41l-18.07,27.31,5.89,1.13Z"/>
          <path class="cls-16" d="M607.06,495.33l10.19-2.78,9.91,3.75c-1.3-10.31-4.01-20.18-7.92-29.41l-18.07,27.31,5.89,1.13Z"/>
          <path class="cls-15" d="M537.31,606.44l-5.86-10.19-1.54-12.96c-.97-.59-1.81-1.22-2.56-1.88l-42.03,36.41c9.85,2.84,20.25,4.36,31.01,4.36,12.1,0,23.75-1.93,34.66-5.49-5.6-4.35-9.35-7.48-9.35-7.48l-4.32-2.78Z"/>
          <path class="cls-22" d="M537.31,606.44l-5.86-10.19-1.54-12.96c-.97-.59-1.81-1.22-2.56-1.88l-42.03,36.41c9.85,2.84,20.25,4.36,31.01,4.36,12.1,0,23.75-1.93,34.66-5.49-5.6-4.35-9.35-7.48-9.35-7.48l-4.32-2.78Z"/>
          <path class="cls-15" d="M149.65,575.27c0-35.97,29.16-65.12,65.12-65.12,28.77,0,53.17,18.66,61.78,44.54l105.35-48.6c-6.73-2.47-15-5.3-19.6-6.12-8.64-1.54-2.78-4.32-2.78-4.32l-11.42-10.19-12.96-4.32-21.61-14.51,10.19,10.18,11.42,12.96,5.86,4.32,10.19,4.32-7.1,1.54-8.64-1.54-11.42-8.64v-5.86l-11.42-2.78-7.1-5.86-5.86-4.32-10.19-11.42-7.1-1.54h-8.64l-14.51-15.74-10.19-12.96v-11.42l4.32-5.86-1.54-5.86-5.86-5.86-14.51-4.32v-4.32l-15.74-10.19-1.54-7.1h-12.96l-5.86-5.86-18.52,7.1-5.86,4.32-7.1,2.78-4.32,2.78s-7.1,5.86-15.74,17.28c-8.64,11.42-7.1,2.78-7.1,2.78l-2.78-7.1,1.54-22.84.21-2.14c-15.9,43.18-24.59,89.86-24.59,138.56,0,23.18,1.97,45.9,5.75,68l33.33,3.25c-.32-2.62-.5-5.27-.5-7.98Z"/>
          <path class="cls-23" d="M149.65,575.27c0-35.97,29.16-65.12,65.12-65.12,28.77,0,53.17,18.66,61.78,44.54l105.35-48.6c-6.73-2.47-15-5.3-19.6-6.12-8.64-1.54-2.78-4.32-2.78-4.32l-11.42-10.19-12.96-4.32-21.61-14.51,10.19,10.18,11.42,12.96,5.86,4.32,10.19,4.32-7.1,1.54-8.64-1.54-11.42-8.64v-5.86l-11.42-2.78-7.1-5.86-5.86-4.32-10.19-11.42-7.1-1.54h-8.64l-14.51-15.74-10.19-12.96v-11.42l4.32-5.86-1.54-5.86-5.86-5.86-14.51-4.32v-4.32l-15.74-10.19-1.54-7.1h-12.96l-5.86-5.86-18.52,7.1-5.86,4.32-7.1,2.78-4.32,2.78s-7.1,5.86-15.74,17.28c-8.64,11.42-7.1,2.78-7.1,2.78l-2.78-7.1,1.54-22.84.21-2.14c-15.9,43.18-24.59,89.86-24.59,138.56,0,23.18,1.97,45.9,5.75,68l33.33,3.25c-.32-2.62-.5-5.27-.5-7.98Z"/>
          <path class="cls-15" d="M578.05,877.12c-35.97,0-65.12-29.16-65.12-65.12,0-30.34,20.75-55.84,48.84-63.07l-52.23-112.24.93-.31c-13.24-.59-25.95-3.22-37.83-7.57l-195.81,169.6,44.28-50.88-51.69,45.02.43-.49-9.07,7.9,146.92-224.62c-2.37-3.9-4.54-7.94-6.48-12.11l-122.68-1.35c.9,4.32,1.38,8.8,1.38,13.39,0,35.97-29.16,65.12-65.12,65.12-31.32,0-57.46-22.11-63.7-51.57l-29.45,14.94c41.49,177.2,200.52,309.16,390.37,309.16,25.94,0,51.31-2.46,75.88-7.17l-.19-29.35c-3.15.47-6.36.71-9.64.71Z"/>
          <path class="cls-21" d="M578.05,877.12c-35.97,0-65.12-29.16-65.12-65.12,0-30.34,20.75-55.84,48.84-63.07l-52.23-112.24.93-.31c-13.24-.59-25.95-3.22-37.83-7.57l-195.81,169.6,44.28-50.88-51.69,45.02.43-.49-9.07,7.9,146.92-224.62c-2.37-3.9-4.54-7.94-6.48-12.11l-122.68-1.35c.9,4.32,1.38,8.8,1.38,13.39,0,35.97-29.16,65.12-65.12,65.12-31.32,0-57.46-22.11-63.7-51.57l-29.45,14.94c41.49,177.2,200.52,309.16,390.37,309.16,25.94,0,51.31-2.46,75.88-7.17l-.19-29.35c-3.15.47-6.36.71-9.64.71Z"/>
          <path class="cls-15" d="M437,508.91l-8.64,7.1-15.74-2.78-7.1-1.54-.91-.11c.18,17.92,4.56,34.83,12.22,49.78l30.22-46.21-2.95-1.92-7.1-4.32Z"/>
          <path class="cls-19" d="M437,508.91l-8.64,7.1-15.74-2.78-7.1-1.54-.91-.11c.18,17.92,4.56,34.83,12.22,49.78l30.22-46.21-2.95-1.92-7.1-4.32Z"/>
          <path class="cls-15" d="M879.61,438.77c.38,2.86.6,5.77.6,8.73,0,35.97-29.16,65.12-65.12,65.12-29.31,0-54.09-19.36-62.26-45.99l-75.31,34.44,7.02,4.76,17.28-2.78s24.69,10.18,10.19,10.18-5.86,21.61,2.78,20.06c8.64-1.23,11.42-11.42,11.42-11.42l5.86-2.78h7.1l11.42,2.78,8.64-1.54,18.52-2.78,10.19,5.86,15.74-1.54,5.86-1.54,10.19,2.78,5.86,8.64-4.32,8.64-4.32,12.96-4.32,17.28,2.78,24.38-5.86,7.1,5.86,10.18-4.32,7.1-2.78,10.18-4.32,2.78-17.28,8.64-4.32,10.19-5.86,1.54c-5.86,1.54,2.78,24.38,2.78,24.38l-1.54,7.1-5.86,7.1-11.42,17.28,2.78,7.1-12.96,2.78-7.1,2.78-11.42-5.86v4.32l7.1,4.32,7.1,2.78-1.54,14.51-10.19,2.78-11.42,5.86,1.54,5.86,4.32,7.1-11.42-1.54h-5.86l8.64,15.74-5.86,5.86-5.86,11.42s21.6-4.32,15.74,4.32c-15.74,25.93-2.78,11.42-2.78,20.06,0,6.26,10.53,10.25,16.33,11.98,2.34.26,3.73.98,3.73.98,0,0-1.52-.33-3.73-.98-3.39-.38-8.76.19-14.79,5.31-10.19,8.64-12.96-11.42-21.61-8.64-8.64,2.78-20.06-17.28-20.06-17.28,0,0-15.74-11.42-11.42-17.28,4.32-5.56,5.86-16.98-4.32-18.52-10.19-1.54-10.19-12.96-12.96-20.06-2.78-7.1-8.64-19.75-8.64-27.16s-5.86-25.93-5.86-25.93c0,0-11.73-5.86-5.86-25.93,5.86-20.06-11.42-12.65-11.42-18.52s-12.96-5.86-12.96-5.86l-22.84-11.42c-4.64-2.32-9.91-5.58-15.12-9.1v117.06c2.73-.35,5.51-.55,8.33-.55,35.97,0,65.12,29.16,65.12,65.12,0,30.54-21.03,56.16-49.4,63.2l16.58,25.57c173.87-43.85,302.57-201.28,302.57-388.77,0-23.24-1.98-46.01-5.78-68.16l-27.54-5.07Z"/>
          <path class="cls-20" d="M879.61,438.77c.38,2.86.6,5.77.6,8.73,0,35.97-29.16,65.12-65.12,65.12-29.31,0-54.09-19.36-62.26-45.99l-75.31,34.44,7.02,4.76,17.28-2.78s24.69,10.18,10.19,10.18-5.86,21.61,2.78,20.06c8.64-1.23,11.42-11.42,11.42-11.42l5.86-2.78h7.1l11.42,2.78,8.64-1.54,18.52-2.78,10.19,5.86,15.74-1.54,5.86-1.54,10.19,2.78,5.86,8.64-4.32,8.64-4.32,12.96-4.32,17.28,2.78,24.38-5.86,7.1,5.86,10.18-4.32,7.1-2.78,10.18-4.32,2.78-17.28,8.64-4.32,10.19-5.86,1.54c-5.86,1.54,2.78,24.38,2.78,24.38l-1.54,7.1-5.86,7.1-11.42,17.28,2.78,7.1-12.96,2.78-7.1,2.78-11.42-5.86v4.32l7.1,4.32,7.1,2.78-1.54,14.51-10.19,2.78-11.42,5.86,1.54,5.86,4.32,7.1-11.42-1.54h-5.86l8.64,15.74-5.86,5.86-5.86,11.42s21.6-4.32,15.74,4.32c-15.74,25.93-2.78,11.42-2.78,20.06,0,6.26,10.53,10.25,16.33,11.98,2.34.26,3.73.98,3.73.98,0,0-1.52-.33-3.73-.98-3.39-.38-8.76.19-14.79,5.31-10.19,8.64-12.96-11.42-21.61-8.64-8.64,2.78-20.06-17.28-20.06-17.28,0,0-15.74-11.42-11.42-17.28,4.32-5.56,5.86-16.98-4.32-18.52-10.19-1.54-10.19-12.96-12.96-20.06-2.78-7.1-8.64-19.75-8.64-27.16s-5.86-25.93-5.86-25.93c0,0-11.73-5.86-5.86-25.93,5.86-20.06-11.42-12.65-11.42-18.52s-12.96-5.86-12.96-5.86l-22.84-11.42c-4.64-2.32-9.91-5.58-15.12-9.1v117.06c2.73-.35,5.51-.55,8.33-.55,35.97,0,65.12,29.16,65.12,65.12,0,30.54-21.03,56.16-49.4,63.2l16.58,25.57c173.87-43.85,302.57-201.28,302.57-388.77,0-23.24-1.98-46.01-5.78-68.16l-27.54-5.07Z"/>
          <path class="cls-15" d="M162.93,320.95l11.42-7.1,7.1-5.86,10.19-1.54,5.86,1.54h5.86l2.78-7.1,5.86-5.86,1.54-10.19,15.74-7.1,15.74-8.64,11.42-5.86,14.51-2.78h12.96l11.42-4.32,1.54-8.64,8.64-7.1h11.42l7.1-5.86v-8.64l14.51-17.28,5.86-5.86,1.54-10.19,5.86-8.64,10.19,5.86,5.86,11.42,4.32,2.78,5.86-5.86h4.32l8.64-7.1v-5.86l2.78-5.86,3.35-2.27c7.91-14.78,21.35-26.15,37.55-31.35l-12.68-24.45c-121.34,27.83-221.67,110.71-273.3,220.96l8.35-12.59,5.86-8.64Z"/>
          <path class="cls-10" d="M162.93,320.95l11.42-7.1,7.1-5.86,10.19-1.54,5.86,1.54h5.86l2.78-7.1,5.86-5.86,1.54-10.19,15.74-7.1,15.74-8.64,11.42-5.86,14.51-2.78h12.96l11.42-4.32,1.54-8.64,8.64-7.1h11.42l7.1-5.86v-8.64l14.51-17.28,5.86-5.86,1.54-10.19,5.86-8.64,10.19,5.86,5.86,11.42,4.32,2.78,5.86-5.86h4.32l8.64-7.1v-5.86l2.78-5.86,3.35-2.27c7.91-14.78,21.35-26.15,37.55-31.35l-12.68-24.45c-121.34,27.83-221.67,110.71-273.3,220.96l8.35-12.59,5.86-8.64Z"/>
          <path class="cls-15" d="M454.59,142.56c35.97,0,65.12,29.16,65.12,65.12,0,7.92-1.42,15.51-4.01,22.53l12.96,11.42,14.51,5.86,18.52-2.78v4.32l-8.64,7.1-7.1,5.86,5.86,2.78,8.64-5.86,7.1-2.78h7.1v7.1l1.54,8.64,14.51,11.42h5.86l5.86,5.86-1.54,5.86-8.64,1.54h-7.1l-14.51,2.78-1.54-7.1v-12.96l-5.86,7.1v5.86l-5.86,1.54-11.42-1.54-18.52,1.54-5.86,4.32-8.64,5.86-7.1,18.52,5.86-7.1,8.64-4.32,8.64-7.1,5.86-2.78v8.64l5.86,5.86,8.64,1.54,11.42,1.54-5.86,5.86-18.52,14.51,2.78-14.51-14.51,11.42-7.1,10.19-6.96,8.47,11.9,26.1-3.7.93c17.45.32,34.03,4.14,49.09,10.77l204.31-174.04-2.47,3.7-39.01,58.6,47.03-53.35-147.92,223.49c.77,1.52,1.53,3.04,2.24,4.59l118.57,1.29c-.44-3.04-.67-6.15-.67-9.32,0-35.97,29.16-65.12,65.12-65.12,31.16,0,57.19,21.89,63.6,51.13l24.46-9.89c-40.25-178.9-200.09-312.54-391.14-312.54-21.88,0-43.34,1.76-64.27,5.13l-2.47,27.03c3.05-.44,6.17-.68,9.34-.68Z"/>
          <path class="cls-7" d="M454.59,142.56c35.97,0,65.12,29.16,65.12,65.12,0,7.92-1.42,15.51-4.01,22.53l12.96,11.42,14.51,5.86,18.52-2.78v4.32l-8.64,7.1-7.1,5.86,5.86,2.78,8.64-5.86,7.1-2.78h7.1v7.1l1.54,8.64,14.51,11.42h5.86l5.86,5.86-1.54,5.86-8.64,1.54h-7.1l-14.51,2.78-1.54-7.1v-12.96l-5.86,7.1v5.86l-5.86,1.54-11.42-1.54-18.52,1.54-5.86,4.32-8.64,5.86-7.1,18.52,5.86-7.1,8.64-4.32,8.64-7.1,5.86-2.78v8.64l5.86,5.86,8.64,1.54,11.42,1.54-5.86,5.86-18.52,14.51,2.78-14.51-14.51,11.42-7.1,10.19-6.96,8.47,11.9,26.1-3.7.93c17.45.32,34.03,4.14,49.09,10.77l204.31-174.04-2.47,3.7-39.01,58.6,47.03-53.35-147.92,223.49c.77,1.52,1.53,3.04,2.24,4.59l118.57,1.29c-.44-3.04-.67-6.15-.67-9.32,0-35.97,29.16-65.12,65.12-65.12,31.16,0,57.19,21.89,63.6,51.13l24.46-9.89c-40.25-178.9-200.09-312.54-391.14-312.54-21.88,0-43.34,1.76-64.27,5.13l-2.47,27.03c3.05-.44,6.17-.68,9.34-.68Z"/>
          <path class="cls-14" d="M463.23,475.27l-14.51,4.32-5.86,10.19-7.1,5.86h-20.06l-8.64-8.64c-1.61,7.56-2.47,15.41-2.47,23.45,0,.38.01.75.01,1.13l.91.11,7.1,1.54,15.74,2.78,8.64-7.1,7.1,4.32,2.95,1.92,19.31-29.53-1.59-.16-1.54-10.18Z"/>
          <path class="cls-14" d="M487.08,487.76c-2.22,2.66-4.12,5.62-5.6,8.83,1.64-3.22,3.73-6.17,6.19-8.77l-.59-.06Z"/>
          <path class="cls-14" d="M643.48,516.94c-1.23,16.67-5.25,32.41-12.04,46.91l47.22,55.86-65.12-28.4c-12.04,14.51-27.47,26.23-45.06,34.26l1.23-.31v5.1c5.22,3.52,10.48,6.78,15.12,9.1l22.84,11.42s12.96,0,12.96,5.86,17.28-1.54,11.42,18.52c-5.86,20.06,5.86,25.93,5.86,25.93,0,0,5.86,18.52,5.86,25.93s5.86,20.06,8.64,27.16c2.78,7.1,2.78,18.52,12.96,20.06,10.19,1.54,8.64,12.96,4.32,18.52-4.32,5.86,11.42,17.28,11.42,17.28,0,0,11.42,20.06,20.06,17.28,8.64-2.78,11.42,17.28,21.61,8.64,6.03-5.11,11.4-5.69,14.79-5.31-5.8-1.72-16.33-5.72-16.33-11.98,0-8.64-12.96,5.86,2.78-20.06,5.86-8.64-15.74-4.32-15.74-4.32l5.86-11.42,5.86-5.86-8.64-15.74h5.86l11.42,1.54-4.32-7.1-1.54-5.86,11.42-5.86,10.19-2.78,1.54-14.51-7.1-2.78-7.1-4.32v-4.32l11.42,5.86,7.1-2.78,12.96-2.78-2.78-7.1,11.42-17.28,5.86-7.1,1.54-7.1s-8.64-22.84-2.78-24.38l5.86-1.54,4.32-10.19,17.28-8.64,4.32-2.78,2.78-10.18,4.32-7.1-5.86-10.18,5.86-7.1-2.78-24.38,4.32-17.28,4.32-12.96,4.32-8.64-5.86-8.64-10.19-2.78-5.86,1.54-15.74,1.54-10.19-5.86-18.52,2.78-8.64,1.54-11.42-2.78h-7.1l-5.86,2.78s-2.78,10.19-11.42,11.42c-8.64,1.54-17.28-20.06-2.78-20.06s-10.19-10.18-10.19-10.18l-17.28,2.78-7.02-4.76-34.03,15.56v.31Z"/>
          <path class="cls-14" d="M435.77,449.96l1.54-5.86,8.64-4.32,20.06,1.54,11.42,7.1,5.86,7.1,8.64-4.32-12.96-17.28v-10.19l7.1-7.1,7.1-10.18,6.48-6.48c-32.76,4.9-60.85,24-77.83,50.84l5.3-2.39,8.64,1.54Z"/>
          <path class="cls-14" d="M737.59,830.77c2.2.65,3.73.98,3.73.98,0,0-1.39-.72-3.73-.98Z"/>
          <path class="cls-14" d="M477.43,512c0,.24.02.48.02.72,0-.24,0-.48.02-.72h-.04Z"/>
          <path class="cls-14" d="M133.91,398.42l2.78,7.1s-1.54,8.64,7.1-2.78c8.64-11.42,15.74-17.28,15.74-17.28l4.32-2.78,7.1-2.78,5.86-4.32,18.52-7.1,5.86,5.86h12.96l1.54,7.1,15.74,10.19v4.32l14.51,4.32,5.86,5.86,1.54,5.86-4.32,5.86v11.42l10.19,12.96,14.51,15.74h8.64l7.1,1.54,10.19,11.42,5.86,4.32,7.1,5.86,11.42,2.78v5.86l11.42,8.64,8.64,1.54,7.1-1.54-10.19-4.32-5.86-4.32-11.42-12.96-10.19-10.18,21.61,14.51,12.96,4.32,11.42,10.19s-5.86,2.78,2.78,4.32c4.6.82,12.87,3.65,19.6,6.12l7.25-3.34v.62c.93-19.14,5.86-36.73,13.89-52.78l-1.23,1.85-50.31-53.09,67.59,25.93-4.01,6.17c12.65-16.36,29.01-29.63,47.84-38.27l-2.16.62,2.37-121.56c-2.8.37-5.65.58-8.55.58-2.44,0-4.85-.15-7.23-.41l4.45,8.12-2.78,20.06-5.86,11.42-5.86,5.86-5.86-8.64-5.86-12.96-5.86,1.54-8.64,2.78-1.54,4.32-12.96-5.86-17.28,2.78h-7.1l-14.51-20.06,5.86-10.18,11.42-14.51,7.1-14.51,10-16.67c-1.68-5.78-2.6-11.88-2.6-18.2,0-11.09,2.78-21.53,7.67-30.67l-3.35,2.27-2.78,5.86v5.86l-8.64,7.1h-4.32l-5.86,5.86-4.32-2.78-5.86-11.42-10.19-5.86-5.86,8.64-1.54,10.19-5.86,5.86-14.51,17.28v8.64l-7.1,5.86h-11.42l-8.64,7.1-1.54,8.64-11.42,4.32h-12.96l-14.51,2.78-11.42,5.86-15.74,8.64-15.74,7.1-1.54,10.19-5.86,5.86-2.78,7.1h-5.86l-5.86-1.54-10.19,1.54-7.1,5.86-11.42,7.1-5.86,8.64-8.35,12.59-11.71,17.66-1.33,13.6-.21,2.14-1.54,22.84Z"/>
          <path class="cls-14" d="M607.06,495.33l-5.89-1.13-36.09,54.52-37.74,32.69c.74.66,1.58,1.29,2.56,1.88l1.54,12.96,5.86,10.19,4.32,2.78s3.76,3.13,9.35,7.48c44.75-14.58,77.07-56.62,77.07-106.24,0-4.79-.3-9.52-.89-14.15l-9.91-3.75-10.19,2.78Z"/>
          <path class="cls-14" d="M472.15,270.39l38.45,84.34,6.96-8.47,7.1-10.19,14.51-11.42-2.78,14.51,18.52-14.51,5.86-5.86-11.42-1.54-8.64-1.54-5.86-5.86v-8.64l-5.86,2.78-8.64,7.1-8.64,4.32-5.86,7.1,7.1-18.52,8.64-5.86,5.86-4.32,18.52-1.54,11.42,1.54,5.86-1.54v-5.86l5.86-7.1v12.96l1.54,7.1,14.51-2.78h7.1l8.64-1.54,1.54-5.86-5.86-5.86h-5.86l-14.51-11.42-1.54-8.64v-7.1h-7.1l-7.1,2.78-8.64,5.86-5.86-2.78,7.1-5.86,8.64-7.1v-4.32l-18.52,2.78-14.51-5.86-12.96-11.42c-7.18,19.47-23.4,34.54-43.56,40.17Z"/>
          <path class="cls-15" d="M579.9,769.1c2.47,0,4.63,0,6.48.31,2.16.31,4.01.62,5.56.93,1.54.31,2.78.93,3.7,1.23,1.23.62,1.85,1.54,2.47,2.78.31,1.23.93,2.78,1.54,5.25l2.78,11.11c.62,1.85-.31,3.09-2.16,3.4-1.54.31-2.47-.62-3.4-2.16-.62-1.85-2.16-4.01-3.7-6.79-4.63-7.72-11.42-11.11-19.44-9.57-5.25.93-8.95,2.78-11.42,5.86-2.47,3.09-3.09,6.48-2.16,10.49.62,2.16,1.54,4.01,2.47,5.56,1.23,1.54,2.78,2.78,4.63,3.7,1.85.93,4.01,2.16,6.79,2.78,2.47.93,5.56,1.54,8.95,2.47,4.01.93,7.41,2.16,10.49,3.09,3.09,1.23,5.86,2.47,8.02,4.32,2.16,1.54,4.01,3.7,5.56,5.86,1.54,2.16,2.78,4.94,3.4,7.72.93,3.7.93,7.41.31,10.8-.93,3.4-2.47,6.48-4.63,9.26-2.16,2.78-4.94,5.25-8.33,7.1s-7.1,3.09-11.11,4.01c-4.32.62-8.02.93-11.73.62-3.4-.31-5.86-.93-7.1-1.54-.93-.62-1.85-1.23-2.16-1.85s-.62-1.54-.93-2.78l-3.09-12.35-.31-.62c-.31-1.85,0-2.78,1.54-3.09,1.23-.31,2.47.31,3.4,1.54.93,1.23,2.16,2.78,3.4,4.63,2.47,3.4,4.63,5.86,6.79,7.41,2.16,1.54,5.25,1.85,9.57,1.23,3.7-.62,6.48-2.16,8.64-4.63,1.85-2.47,2.47-5.56,1.54-8.64-.62-2.16-1.54-4.01-2.78-5.25-1.23-1.23-2.78-2.16-4.32-2.78-1.85-.62-3.7-1.23-5.86-1.54s-4.63-.93-7.1-1.54c-4.32-.93-8.02-2.16-11.42-3.7-3.4-1.23-6.17-3.09-8.64-4.63-2.47-1.85-4.63-4.01-6.17-6.17-1.54-2.47-2.78-4.94-3.7-8.33-.93-4.01-1.23-8.02-.31-11.73.93-3.7,2.47-7.41,4.63-10.49,2.47-3.09,5.56-5.86,9.26-8.03,3.7-2.16,8.02-3.7,12.96-4.63,2.47-.31,4.94-.62,7.1-.62Z"/>
          <path class="cls-15" d="M865.39,454.9c-.31.62-.62.93-1.85,1.23l-13.27,4.32-.93.31c-1.23.31-2.16.62-2.78.62s-1.23-.31-1.54-1.54c-.31-1.23,0-2.16,1.23-3.4,1.23-1.23,2.78-2.78,4.63-5.25,2.47-3.39,3.09-7.41,1.54-12.65-1.23-3.7-2.47-5.86-4.01-6.48-1.54-.62-3.4-.93-5.56,0l-18.21,5.86c-1.23.31-1.85.93-2.16,1.85s0,2.47.62,4.32c.93,2.47,1.54,4.63,2.47,5.86.93,1.54,1.85,2.16,3.09,2.47,1.54.31,2.78.62,4.01.62h3.09c.93,0,1.54,0,2.16.31.62.31.93.62,1.23,1.23s0,1.23-.31,1.85-.93.93-1.85,1.23c-.62.31-1.54.31-3.4.62-1.54.31-4.01.93-6.79,1.85-3.09.93-5.86,1.85-8.02,2.78s-4.01,1.54-5.56,1.85c-1.85.62-3.09.31-3.4-1.23-.31-1.23,0-2.47,1.23-3.09,1.23-.93,2.47-1.85,4.01-3.09,1.85-1.54,3.09-3.09,3.7-4.63s.31-3.7-.62-6.48c-.31-.62-.31-.93-.62-1.54s-.31-.93-.62-1.54l-.62-1.23c-.62-.93-1.23-1.23-2.16-.93l-20.06,6.48c-2.16.62-4.01,1.23-5.56,2.16-1.54.62-2.78,1.54-3.7,2.47-.93.93-1.23,2.16-1.54,3.7,0,1.54.31,3.4.93,5.56.93,2.47,2.16,4.63,4.01,6.48s3.7,3.09,6.17,4.01c1.85.62,3.4,1.23,4.94,1.23,1.54.31,2.78.31,3.7.62.93,0,1.85.31,2.78.62.62.31,1.23.62,1.23,1.54.62,1.54-.62,2.78-3.09,3.7-1.23.31-2.16.31-3.4.62l-11.11,1.85c-1.54.31-2.47.31-3.4,0-.93-.31-1.54-.93-1.85-2.16-.31-.93-.93-4.32-2.16-9.57-1.23-5.25-3.09-12.65-6.17-21.91-1.85-5.56-3.4-9.88-4.94-12.96-1.23-3.09-2.16-4.94-2.47-5.56-.62-1.85,0-3.09,1.85-3.7.93-.31,1.54-.31,2.16.31.31.62.93,1.54,1.85,3.09.93,1.85,1.85,3.09,3.09,3.4.93.31,2.47.31,4.63-.31l57.72-18.52c1.85-.62,3.09-1.23,3.7-2.16.62-.93.93-2.16.93-4.01-.31-1.85-.31-3.09-.31-4.01s.31-1.54,1.54-1.85c1.85-.62,3.09,0,3.7,1.85,0,.31.62,2.47,1.23,5.56.62,3.39,2.16,8.33,4.32,15.12,2.47,7.41,4.63,13.58,6.48,17.9,1.85,4.63,3.09,7.72,3.7,9.57.31,1.23.62,2.16.31,2.78Z"/>
          <path class="cls-15" d="M451.51,250.58c-.93.31-2.47.62-4.32.62-1.85.31-4.01.62-6.79,1.23-2.47.62-4.63,1.23-6.17,1.85-1.54.62-2.78,1.23-3.7,1.23-2.16.62-3.4,0-3.7-1.85-.31-.62,0-1.23,0-1.54.31-.31.62-.62,1.23-.93s1.23-.62,1.85-.62c.62-.31,1.54-.62,2.47-1.23,1.54-.93,2.16-2.47,2.16-4.63s-.62-5.25-1.54-9.26l-11.42-45.06c-.62-2.78-1.54-4.94-2.16-6.48-.62-1.54-1.85-2.47-3.4-2.47h-2.16c-.62,0-1.54.31-2.16.31s-1.23,0-1.54-.31-.93-.62-.93-1.54c-.62-1.85.31-3.09,2.16-3.4.31,0,1.54-.31,3.7-.62,2.16-.31,5.25-1.23,9.57-2.16,2.47-.62,4.63-1.23,6.17-1.54,1.54-.62,2.47-.93,3.09-.93,1.23-.31,1.85-.31,2.47-.31.62.31,1.23.62,2.47,1.54l42.59,34.57c.62.62,1.23.93,1.85.62.62-.31.93-.93.62-2.16l-6.79-26.54c-.93-3.7-1.85-6.48-3.09-8.33-.93-1.85-2.47-2.78-4.32-3.09h-3.09c-.93.31-1.85.31-2.47.31h-1.85c-.62-.31-.93-.62-.93-1.54-.62-1.85.62-3.09,2.78-3.7,1.23-.31,2.47-.62,3.7-.62.93,0,1.85,0,2.47-.31.31,0,.62,0,1.54-.31.93-.31,1.85-.31,3.4-.93,1.54-.31,2.78-.62,3.7-.93.62-.31,1.23-.31,1.54-.31.62,0,1.23-.31,1.85-.93.93-.31,1.85-.93,3.09-.93,2.16-.62,3.4,0,3.7,1.85.31.62,0,1.23,0,1.54l-.93.93-1.85.93c-.93.31-1.54.62-2.47,1.23-1.54.93-2.16,2.47-2.16,4.63s.62,5.25,1.54,9.26l14.81,58.02-.62.93c.93,4.01.31,6.17-2.16,7.1-1.23.31-2.47,0-3.7-.62-1.23-.62-2.47-1.85-4.01-3.09l-57.72-48.15c-.62-.31-1.23-.62-1.54-.31-.31,0-.31.62,0,1.85l10.49,41.36c.93,3.7,1.85,6.79,2.78,8.33.93,1.85,2.47,2.78,4.01,3.09.93.31,2.16.31,3.09,0,.93-.31,1.85-.31,2.78-.62h1.85c.62.31.93.62,1.23,1.23.62,1.85-.62,3.09-3.09,3.7Z"/>
          <path class="cls-15" d="M264.78,571.88c1.85,0,3.4.31,4.94.62,1.54.31,2.47.62,3.4.93.93.62,1.23,1.23,1.54,2.16.31,1.54-.31,2.78-1.85,4.01-1.54,1.23-4.32,3.09-8.33,5.86l-40.74,27.78c-4.32,3.09-8.02,5.56-10.49,7.41-2.78,1.85-4.32,3.39-4.94,4.63-.62.93-.93,1.54-.93,2.47s-.31,1.54-.31,2.16-.31,1.23-.62,1.85-.93.93-1.54,1.23-1.23,0-2.16-.31c-.62-.31-.93-.93-1.23-1.54-.31-.62-.31-2.16-.62-4.32-.31-2.16-.93-5.25-1.85-8.95-.62-2.16-1.23-4.01-1.85-5.56s-.93-2.78-1.54-4.01c-.31-1.23-.31-2.16-.31-2.47.31-.62.62-.93,1.85-1.23.62-.31,1.23-.31,1.85,0,.31.31.93.62,1.23.93s.93.62,1.23.93c.62.31,1.23.31,2.16,0,.31,0,.93-.31,1.54-.62s1.54-.93,2.16-1.23l40.12-26.85-.62.93c.62-.31.93-.93.93-.93,0-.31-.62-.62-1.23-.62l-14.51-1.85h-.93c-.31,0-.62,0-1.23.31-1.23.31-1.85.62-2.16.62l-25.93,17.28c-1.85,1.23-2.78,2.16-3.09,3.09l-.93,2.78c0,.93-.31,1.54-.31,2.16s-.62,1.23-1.85,1.23c-.62.31-1.23,0-2.16,0-.62-.31-.93-.62-1.23-1.54,0-.62-.62-2.47-.93-5.56-.62-3.09-1.54-7.41-3.09-13.27-1.54-5.86-3.09-10.49-4.01-13.58-1.23-3.09-1.85-4.94-1.85-5.86-.31-1.23-.31-2.16,0-2.47.31-.62.93-.93,1.85-1.23.93-.31,1.54-.31,2.16,0,.31.31.93.62,1.23,1.23.62.62,1.23,1.23,1.85,1.54.93.62,2.16.93,4.01,1.23l20.06,2.47c.62,0,1.54,0,2.16-.31.31,0,.62-.31.93-.31s.62-.31.93-.31l20.37-13.27c.93-.62,1.23-.93.93-1.23,0-.31-.62-.62-1.54-.62l-37.04-2.16c-2.47-.31-4.63-.31-6.17,0-1.85,0-3.09.31-4.01.62-1.54.31-2.47.93-3.09,1.85-.62.62-.93,1.54-1.23,2.47s-.62,1.54-.62,2.16c-.31.62-.62,1.23-1.54,1.23-1.85.31-2.78,0-3.09-1.85,0-.31-.31-.93-.31-2.16-.31-1.23-.62-3.09-1.23-5.25-.62-2.47-1.23-4.32-1.85-5.86-.62-1.23-.93-2.16-.93-2.47-.31-.93-.31-1.54,0-2.16.31-.31.93-.93,1.85-.93.62-.31,1.23-.31,1.85,0,.31,0,.62.31.93.62s.62.62.93,1.23c.31.31.93.93,1.54,1.23.93.62,2.47,1.23,4.94,1.85,2.16.62,5.25.93,8.95,1.23l46.3,2.47c3.7.31,7.1.31,9.88.31s5.25,0,7.1.31c1.85,0,3.4.31,4.32.62.93.31,1.54.93,1.85,2.16.31.62.31,1.54,0,2.16s-.93,1.23-1.54,1.85c-.93.62-1.85,1.54-3.4,2.16-1.23.93-3.09,1.85-4.94,3.09l-17.28,11.42c-.31.31-.62.62-.62.93s.31.31.93.31l18.52,2.16c2.47.31,4.63.62,6.48.62Z"/>
          <path class="cls-15" d="M205.52,570.95l-6.48-1.23c-.93,0-1.54-.31-2.47-.31l-.31.31c-.93,0-1.85.31-2.78.31-1.54.31-2.78,1.23-3.39,2.16-.62.93-.93,2.16-.31,3.7.31,1.23,1.23,2.47,2.16,3.09s2.16.93,3.4.31c.31,0,.93-.31,2.16-.93.93-.62,2.16-1.23,3.7-2.47l4.63-3.4.93-.93c0-.31-.62-.31-1.23-.62Z"/>
          <path class="cls-24" d="M488.83,540.42c-7.03-6.78-11.39-16.3-11.39-26.88,0-.27.01-.55.02-.82,0-.24-.02-.48-.02-.72h.04c.22-5.54,1.65-10.75,4.01-15.41,1.48-3.21,3.38-6.17,5.6-8.83.51-.62,1.04-1.22,1.59-1.8-.04.04-.09.07-.13.11l.31-.31-14.62-12.18-7.87,12.03-19.31,29.53-30.22,46.21-9.14,13.98-146.92,224.62,9.07-7.9,218.99-251.64Z"/>
          <path class="cls-15" d="M478.56,513.34c0-17.54,12-32.19,28.26-36.24-.53.1-1.06.2-1.58.32-6.82,1.79-12.87,5.45-17.57,10.4-2.46,2.6-4.55,5.55-6.19,8.77-2.37,4.65-3.79,9.87-4.01,15.41,0,.24-.01.48-.02.72,0,.27-.02.54-.02.82,0,10.58,4.37,20.1,11.39,26.88l.03-.03c4,3.62,8.82,6.41,14.18,8.02-14.3-5.23-24.47-18.93-24.47-35.08Z"/>
          <path class="cls-15" d="M537.31,485.46l.13-.15c-6.46-5.47-14.72-8.8-23.9-8.8-2.31,0-4.55.21-6.72.6-16.26,4.04-28.26,18.69-28.26,36.24,0,16.15,10.16,29.85,24.47,35.08,3.32,1,6.85,1.55,10.51,1.55,12.65,0,23.46-6.17,30.25-15.74h0c3.4-5.56,6.17-13.89,6.17-20.99,0-11.11-4.94-20.99-12.65-27.78Z"/>
          <path class="cls-15" d="M515.91,534.02c-11.42,0-20.68-9.26-20.68-20.68s9.26-20.68,20.68-20.68,20.68,9.26,20.68,20.68-9.26,20.68-20.68,20.68Z"/>
          <path class="cls-15" d="M515.91,492.66c-11.42,0-20.68,9.26-20.68,20.68s9.26,20.68,20.68,20.68,20.68-9.26,20.68-20.68-9.26-20.68-20.68-20.68Z"/>
          <path class="cls-15" d="M513.85,529.9c-9.88,0-17.59-8.02-17.59-17.59s8.02-17.59,17.59-17.59,17.59,8.02,17.59,17.59-8.02,17.59-17.59,17.59Z"/>
          <path class="cls-26" d="M550.58,782.37c-2.16,3.09-3.7,6.79-4.63,10.49-.93,3.7-.62,7.72.31,11.73.93,3.4,2.16,5.86,3.7,8.33,1.54,2.16,3.7,4.32,6.17,6.17,2.47,1.54,5.25,3.4,8.64,4.63,3.4,1.54,7.1,2.78,11.42,3.7,2.47.62,4.94,1.23,7.1,1.54s4.01.93,5.86,1.54c1.54.62,3.09,1.54,4.32,2.78,1.23,1.23,2.16,3.09,2.78,5.25.93,3.09.31,6.17-1.54,8.64-2.16,2.47-4.94,4.01-8.64,4.63-4.32.62-7.41.31-9.57-1.23-2.16-1.54-4.32-4.01-6.79-7.41-1.23-1.85-2.47-3.39-3.4-4.63-.93-1.23-2.16-1.85-3.4-1.54-1.54.31-1.85,1.23-1.54,3.09l.31.62,3.09,12.35c.31,1.23.62,2.16.93,2.78s1.23,1.23,2.16,1.85c1.23.62,3.7,1.23,7.1,1.54,3.7.31,7.41,0,11.73-.62,4.01-.93,7.72-2.16,11.11-4.01s6.17-4.32,8.33-7.1c2.16-2.78,3.7-5.86,4.63-9.26.62-3.4.62-7.1-.31-10.8-.62-2.78-1.85-5.56-3.4-7.72-1.54-2.16-3.4-4.32-5.56-5.86-2.16-1.85-4.94-3.09-8.02-4.32-3.09-.93-6.48-2.16-10.49-3.09-3.39-.93-6.48-1.54-8.95-2.47-2.78-.62-4.94-1.85-6.79-2.78-1.85-.93-3.4-2.16-4.63-3.7-.93-1.54-1.85-3.4-2.47-5.56-.93-4.01-.31-7.41,2.16-10.49,2.47-3.09,6.17-4.94,11.42-5.86,8.02-1.54,14.81,1.85,19.44,9.57,1.54,2.78,3.09,4.94,3.7,6.79.93,1.54,1.85,2.47,3.4,2.16,1.85-.31,2.78-1.54,2.16-3.4l-2.78-11.11c-.62-2.47-1.23-4.01-1.54-5.25-.62-1.23-1.23-2.16-2.47-2.78-.93-.31-2.16-.93-3.7-1.23-1.54-.31-3.4-.62-5.56-.93-1.85-.31-4.01-.31-6.48-.31-2.16,0-4.63.31-7.1.62-4.94.93-9.26,2.47-12.96,4.63-3.7,2.16-6.79,4.94-9.26,8.03Z"/>
          <path class="cls-26" d="M861.38,442.56c-1.85-4.32-4.01-10.49-6.48-17.9-2.16-6.79-3.7-11.73-4.32-15.12-.62-3.09-1.23-5.25-1.23-5.56-.62-1.85-1.85-2.47-3.7-1.85-1.23.31-1.54.93-1.54,1.85s0,2.16.31,4.01c0,1.85-.31,3.09-.93,4.01-.62.93-1.85,1.54-3.7,2.16l-57.72,18.52c-2.16.62-3.7.62-4.63.31-1.23-.31-2.16-1.54-3.09-3.4-.93-1.54-1.54-2.47-1.85-3.09-.62-.62-1.23-.62-2.16-.31-1.85.62-2.47,1.85-1.85,3.7.31.62,1.23,2.47,2.47,5.56,1.54,3.09,3.09,7.41,4.94,12.96,3.09,9.26,4.94,16.67,6.17,21.91,1.23,5.25,1.85,8.64,2.16,9.57.31,1.23.93,1.85,1.85,2.16.93.31,1.85.31,3.4,0l11.11-1.85c1.23-.31,2.16-.31,3.4-.62,2.47-.93,3.7-2.16,3.09-3.7,0-.93-.62-1.23-1.23-1.54-.93-.31-1.85-.62-2.78-.62-.93-.31-2.16-.31-3.7-.62-1.54,0-3.09-.62-4.94-1.23-2.47-.93-4.32-2.16-6.17-4.01s-3.09-4.01-4.01-6.48c-.62-2.16-.93-4.01-.93-5.56.31-1.54.62-2.78,1.54-3.7.93-.93,2.16-1.85,3.7-2.47,1.54-.93,3.4-1.54,5.56-2.16l20.06-6.48c.93-.31,1.54,0,2.16.93l.62,1.23c.31.62.31.93.62,1.54s.31.93.62,1.54c.93,2.78,1.23,4.94.62,6.48s-1.85,3.09-3.7,4.63c-1.54,1.23-2.78,2.16-4.01,3.09-1.23.62-1.54,1.85-1.23,3.09.31,1.54,1.54,1.85,3.4,1.23,1.54-.31,3.4-.93,5.56-1.85s4.94-1.85,8.02-2.78c2.78-.93,5.25-1.54,6.79-1.85,1.85-.31,2.78-.31,3.4-.62.93-.31,1.54-.62,1.85-1.23s.62-1.23.31-1.85-.62-.93-1.23-1.23c-.62-.31-1.23-.31-2.16-.31h-3.09c-1.23,0-2.47-.31-4.01-.62-1.23-.31-2.16-.93-3.09-2.47-.93-1.23-1.54-3.4-2.47-5.86-.62-1.85-.93-3.4-.62-4.32s.93-1.54,2.16-1.85l18.21-5.86c2.16-.93,4.01-.62,5.56,0,1.54.62,2.78,2.78,4.01,6.48,1.54,5.25.93,9.26-1.54,12.65-1.85,2.47-3.4,4.01-4.63,5.25-1.23,1.23-1.54,2.16-1.23,3.4.31,1.23.93,1.54,1.54,1.54s1.54-.31,2.78-.62l.93-.31,13.27-4.32c1.23-.31,1.54-.62,1.85-1.23s0-1.54-.31-2.78c-.62-1.85-1.85-4.94-3.7-9.57Z"/>
          <path class="cls-26" d="M453.36,245.64h-1.85c-.93.31-1.85.31-2.78.62-.93.31-2.16.31-3.09,0-1.54-.31-3.09-1.23-4.01-3.09-.93-1.54-1.85-4.63-2.78-8.33l-10.49-41.36c-.31-1.23-.31-1.85,0-1.85.31-.31.93,0,1.54.31l57.72,48.15c1.54,1.23,2.78,2.47,4.01,3.09,1.23.62,2.47.93,3.7.62,2.47-.93,3.09-3.09,2.16-7.1l.62-.93-14.81-58.02c-.93-4.01-1.54-7.1-1.54-9.26s.62-3.7,2.16-4.63c.93-.62,1.54-.93,2.47-1.23l1.85-.93.93-.93c0-.31.31-.93,0-1.54-.31-1.85-1.54-2.47-3.7-1.85-1.23,0-2.16.62-3.09.93-.62.62-1.23.93-1.85.93-.31,0-.93,0-1.54.31-.93.31-2.16.62-3.7.93-1.54.62-2.47.62-3.4.93-.93.31-1.23.31-1.54.31-.62.31-1.54.31-2.47.31-1.23,0-2.47.31-3.7.62-2.16.62-3.4,1.85-2.78,3.7,0,.93.31,1.23.93,1.54h1.85c.62,0,1.54,0,2.47-.31h3.09c1.85.31,3.4,1.23,4.32,3.09,1.23,1.85,2.16,4.63,3.09,8.33l6.79,26.54c.31,1.23,0,1.85-.62,2.16-.62.31-1.23,0-1.85-.62l-42.59-34.57c-1.23-.93-1.85-1.23-2.47-1.54-.62,0-1.23,0-2.47.31-.62,0-1.54.31-3.09.93-1.54.31-3.7.93-6.17,1.54-4.32.93-7.41,1.85-9.57,2.16-2.16.31-3.4.62-3.7.62-1.85.31-2.78,1.54-2.16,3.4,0,.93.62,1.23.93,1.54s.93.31,1.54.31,1.54-.31,2.16-.31h2.16c1.54,0,2.78.93,3.4,2.47.62,1.54,1.54,3.7,2.16,6.48l11.42,45.06c.93,4.01,1.54,7.1,1.54,9.26s-.62,3.7-2.16,4.63c-.93.62-1.85.93-2.47,1.23-.62,0-1.23.31-1.85.62s-.93.62-1.23.93c0,.31-.31.93,0,1.54.31,1.85,1.54,2.47,3.7,1.85.93,0,2.16-.62,3.7-1.23,1.54-.62,3.7-1.23,6.17-1.85,2.78-.62,4.94-.93,6.79-1.23,1.85,0,3.4-.31,4.32-.62,2.47-.62,3.7-1.85,3.09-3.7-.31-.62-.62-.93-1.23-1.23Z"/>
          <path class="cls-26" d="M239.78,569.1c-.62,0-.93,0-.93-.31s.31-.62.62-.93l17.28-11.42c1.85-1.23,3.7-2.16,4.94-3.09,1.54-.62,2.47-1.54,3.4-2.16.62-.62,1.23-1.23,1.54-1.85s.31-1.54,0-2.16c-.31-1.23-.93-1.85-1.85-2.16-.93-.31-2.47-.62-4.32-.62-1.85-.31-4.32-.31-7.1-.31s-6.17,0-9.88-.31l-46.3-2.47c-3.7-.31-6.79-.62-8.95-1.23-2.47-.62-4.01-1.23-4.94-1.85-.62-.31-1.23-.93-1.54-1.23-.31-.62-.62-.93-.93-1.23s-.62-.62-.93-.62c-.62-.31-1.23-.31-1.85,0-.93,0-1.54.62-1.85.93-.31.62-.31,1.23,0,2.16,0,.31.31,1.23.93,2.47.62,1.54,1.23,3.39,1.85,5.86.62,2.16.93,4.01,1.23,5.25,0,1.23.31,1.85.31,2.16.31,1.85,1.23,2.16,3.09,1.85.93,0,1.23-.62,1.54-1.23,0-.62.31-1.23.62-2.16s.62-1.85,1.23-2.47c.62-.93,1.54-1.54,3.09-1.85.93-.31,2.16-.62,4.01-.62,1.54-.31,3.7-.31,6.17,0l37.04,2.16c.93,0,1.54.31,1.54.62.31.31,0,.62-.93,1.23l-20.37,13.27c-.31,0-.62.31-.93.31s-.62.31-.93.31c-.62.31-1.54.31-2.16.31l-20.06-2.47c-1.85-.31-3.09-.62-4.01-1.23-.62-.31-1.23-.93-1.85-1.54-.31-.62-.93-.93-1.23-1.23-.62-.31-1.23-.31-2.16,0-.93.31-1.54.62-1.85,1.23-.31.31-.31,1.23,0,2.47,0,.93.62,2.78,1.85,5.86.93,3.09,2.47,7.72,4.01,13.58,1.54,5.86,2.47,10.19,3.09,13.27.31,3.09.93,4.94.93,5.56.31.93.62,1.23,1.23,1.54.93,0,1.54.31,2.16,0,1.23,0,1.85-.62,1.85-1.23s.31-1.23.31-2.16l.93-2.78c.31-.93,1.23-1.85,3.09-3.09l25.93-17.28c.31,0,.93-.31,2.16-.62.62-.31.93-.31,1.23-.31h.93l14.51,1.85c.62,0,1.23.31,1.23.62,0,0-.31.62-.93.93l.62-.93-40.12,26.85c-.62.31-1.54.93-2.16,1.23s-1.23.62-1.54.62c-.93.31-1.54.31-2.16,0-.31-.31-.93-.62-1.23-.93s-.93-.62-1.23-.93c-.62-.31-1.23-.31-1.85,0-1.23.31-1.54.62-1.85,1.23,0,.31,0,1.23.31,2.47.62,1.23.93,2.47,1.54,4.01s1.23,3.4,1.85,5.56c.93,3.7,1.54,6.79,1.85,8.95.31,2.16.31,3.7.62,4.32.31.62.62,1.23,1.23,1.54.93.31,1.54.62,2.16.31s1.23-.62,1.54-1.23.62-1.23.62-1.85.31-1.23.31-2.16.31-1.54.93-2.47c.62-1.23,2.16-2.78,4.94-4.63,2.47-1.85,6.17-4.32,10.49-7.41l40.74-27.78c4.01-2.78,6.79-4.63,8.33-5.86,1.54-1.23,2.16-2.47,1.85-4.01-.31-.93-.62-1.54-1.54-2.16-.93-.31-1.85-.62-3.4-.93-1.54-.31-3.09-.62-4.94-.62s-4.01-.31-6.48-.62l-18.52-2.16Z"/>
          <path class="cls-26" d="M205.83,572.49l-4.63,3.4c-1.54,1.23-2.78,1.85-3.7,2.47-1.23.62-1.85.93-2.16.93-1.23.62-2.47.31-3.4-.31s-1.85-1.85-2.16-3.09c-.62-1.54-.31-2.78.31-3.7.62-.93,1.85-1.85,3.39-2.16.93,0,1.85-.31,2.78-.31l.31-.31c.93,0,1.54.31,2.47.31l6.48,1.23c.62.31,1.23.31,1.23.62l-.93.93Z"/>
          <path class="cls-15" d="M522.63,572l-48.26,42.04c3.56,1.44,7.21,2.71,10.94,3.79l42.03-36.41c-3.25-2.87-4.45-6.31-4.71-9.41Z"/>
          <path class="cls-8" d="M522.63,572l-48.26,42.04c3.56,1.44,7.21,2.71,10.94,3.79l42.03-36.41c-3.25-2.87-4.45-6.31-4.71-9.41Z"/>
          <path class="cls-4" d="M522.63,572l-48.26,42.04c3.56,1.44,7.21,2.71,10.94,3.79l42.03-36.41c-3.25-2.87-4.45-6.31-4.71-9.41Z"/>
          <path class="cls-15" d="M589.73,492.56h2.83l8.62,1.65,18.07-27.31c-1.57-3.7-3.33-7.29-5.27-10.77l-24.25,36.42Z"/>
          <path class="cls-9" d="M589.73,492.56h2.83l8.62,1.65,18.07-27.31c-1.57-3.7-3.33-7.29-5.27-10.77l-24.25,36.42Z"/>
          <path class="cls-4" d="M589.73,492.56h2.83l8.62,1.65,18.07-27.31c-1.57-3.7-3.33-7.29-5.27-10.77l-24.25,36.42Z"/>
          <path class="cls-15" d="M321.1,747.53l-44.28,50.88,195.81-169.6c-3.51-1.28-6.94-2.72-10.29-4.29l-141.24,123.01Z"/>
          <path class="cls-12" d="M321.1,747.53l-44.28,50.88,195.81-169.6c-3.51-1.28-6.94-2.72-10.29-4.29l-141.24,123.01Z"/>
          <path class="cls-4" d="M321.1,747.53l-44.28,50.88,195.81-169.6c-3.51-1.28-6.94-2.72-10.29-4.29l-141.24,123.01Z"/>
          <path class="cls-15" d="M629.82,450.92l147.92-223.49-47.03,53.35-106.6,160.13c2.05,3.24,3.96,6.58,5.71,10.01Z"/>
          <path class="cls-11" d="M629.82,450.92l147.92-223.49-47.03,53.35-106.6,160.13c2.05,3.24,3.96,6.58,5.71,10.01Z"/>
          <path class="cls-4" d="M629.82,450.92l147.92-223.49-47.03,53.35-106.6,160.13c2.05,3.24,3.96,6.58,5.71,10.01Z"/>
          <path class="cls-14" d="M527.35,581.42l37.74-32.69,36.09-54.52-8.62-1.65h-2.83l-33.28,50h0l-33.81,29.45c.26,3.11,1.47,6.54,4.71,9.41Z"/>
          <path class="cls-4" d="M527.35,581.42l37.74-32.69,36.09-54.52-8.62-1.65h-2.83l-33.28,50h0l-33.81,29.45c.26,3.11,1.47,6.54,4.71,9.41Z"/>
          <path class="cls-15" d="M613.98,456.13c1.94,3.48,3.7,7.07,5.27,10.77l10.57-15.97c-1.75-3.43-3.66-6.77-5.71-10.01l-10.13,15.22Z"/>
          <path class="cls-4" d="M613.98,456.13c1.94,3.48,3.7,7.07,5.27,10.77l10.57-15.97c-1.75-3.43-3.66-6.77-5.71-10.01l-10.13,15.22Z"/>
          <path class="cls-15" d="M474.37,614.04l-12.04,10.48c3.35,1.58,6.79,3.01,10.29,4.29l12.69-10.99c-3.73-1.08-7.38-2.34-10.94-3.79Z"/>
          <path class="cls-4" d="M474.37,614.04l-12.04,10.48c3.35,1.58,6.79,3.01,10.29,4.29l12.69-10.99c-3.73-1.08-7.38-2.34-10.94-3.79Z"/>
          <path class="cls-1" d="M537.62,485.46c-.06-.05-.12-.1-.18-.15l-.13.15c7.72,6.79,12.65,16.67,12.65,27.78,0,7.1-2.78,15.43-6.17,20.99l12.65,8.33h0l33.28-50,24.25-36.42,10.13-15.22,106.6-160.13,39.01-58.6-232.1,263.27Z"/>
          <path class="cls-25" d="M472.19,474.04l.93.62.93-1.23.2.17,14.62,12.18-.31.31s.09-.07.13-.11c4.57-4.1,10.2-7.12,16.58-8.54.52-.12,1.05-.22,1.58-.32,2.16-.39,4.41-.6,6.72-.6,9.18,0,17.44,3.34,23.9,8.8.06.05.12.1.18.15l232.1-263.27,2.47-3.7-204.31,174.04-14.63,12.46-81.07,69.06Z"/>
          <path class="cls-2" d="M474.37,614.04l48.26-42.04,33.81-29.45h0l-12.65-8.33h0c-6.79,9.57-17.59,15.74-30.25,15.74-3.66,0-7.19-.55-10.51-1.55-5.36-1.61-10.18-4.4-14.18-8.02l-.03.03-218.99,251.64-.43.49,51.69-45.02,141.24-123.01,12.04-10.48Z"/>
          <path class="cls-15" d="M513.85,494.71c-9.57,0-17.59,7.72-17.59,17.59s7.72,17.59,17.59,17.59,17.59-7.72,17.59-17.59-7.72-17.59-17.59-17.59Z"/>
          <path class="cls-6" d="M513.85,494.71c-9.57,0-17.59,7.72-17.59,17.59s7.72,17.59,17.59,17.59,17.59-7.72,17.59-17.59-7.72-17.59-17.59-17.59Z"/>
        </g>
      </g>
    </g>
  </g>
</svg>