<?xml version="1.0" encoding="UTF-8"?>
<svg id="Layer_1" data-name="Layer 1" xmlns="http://www.w3.org/2000/svg" viewBox="0 0 250.0 232.3606797749979">
<defs>
<style>      .cls-1 {
        fill: #ff00ff;
        stroke: #000000;
        stroke-width: 1.0px;
      }

      .cls-2 {
        fill: #ffff00;
        stroke: #000000;
        stroke-width: 1.0px;
      }

      .cls-3 {
        fill: #0000ff;
        stroke: #000000;
        stroke-width: 1.0px;
      }

</style>
</defs><g id="layer-0">
<path id="shape-379104F7-F0CE-4696-8FF9-FE96DBE2873D" class="cls-1" d="M 100.0 100.0 L 250.0 100.0 L 250.0 200.0 L 100.0 200.0 Z" transform="matrix(1.0 0.0 0.0 1.0 396.7421875 124.6796875)"/>
<path id="shape-1FE5988F-E18B-423B-AE8C-AC8D5F29008E" class="cls-3" d="M 350.0 150.0 C 350.0 177.6 327.6 200.0 300.0 200.0 C 272.4 200.0 250.0 177.6 250.0 150.0 C 250.0 122.4 272.4 100.0 300.0 100.0 C 327.6 100.0 350.0 122.4 350.0 150.0 Z" transform="matrix(1.0 0.0 0.0 1.0 355.3359375 136.34375)"/>
<path id="shape-0814D6EA-92AD-49CB-9226-42E5F1ADEF1C" class="cls-2" d="M 200.0 260.0 L 211.75570504584945 283.819660112501 L 238.04226065180615 287.6393202250021 L 219.02113032590307 306.180339887499 L 223.51141009169893 332.3606797749979 L 200.0 320.0 L 176.4885899083011 332.3606797749979 L 180.97886967409693 306.180339887499 L 161.95773934819385 287.6393202250021 L 188.24429495415055 283.8196601125011 Z" transform="matrix(1.0 0.0 0.0 1.0 426.3203125 31.98046875)"/>
</g>
</svg>