<?xml version="1.0" encoding="UTF-8"?>
<svg id="Layer_1" data-name="Layer 1" xmlns="http://www.w3.org/2000/svg" viewBox="0 0 1024.0 1024.0">
<defs><radialGradient id="gradient7" cx="0.5" cy="0.5" r="0.5" fx="0.5" fy="0.5" gradientUnits="objectBoundingBox" spreadMethod="pad" gradientTransform="scale(0.98 0.98)"><stop offset="0.0" stop-color="rgb(255,226,38)"/><stop offset="0.12" stop-color="rgb(255,219,39)"/><stop offset="0.29" stop-color="rgb(255,200,42)"/><stop offset="0.5" stop-color="rgb(255,169,48)"/><stop offset="0.73" stop-color="rgb(255,126,55)"/><stop offset="0.79" stop-color="rgb(255,113,57)"/></radialGradient><radialGradient id="gradient10" cx="0.5" cy="0.5" r="0.5" fx="0.5" fy="0.5" gradientUnits="objectBoundingBox" spreadMethod="pad" gradientTransform="scale(0.98 0.98)"><stop offset="0.14" stop-color="rgb(255,244,79)"/><stop offset="0.48" stop-color="rgb(255,152,14)"/><stop offset="0.59" stop-color="rgb(255,86,52)"/><stop offset="0.66" stop-color="rgb(255,54,71)"/><stop offset="0.9" stop-color="rgb(227,21,135)"/></radialGradient><radialGradient id="gradient9" cx="0.5" cy="0.5" r="0.5" fx="0.5" fy="0.5" gradientUnits="objectBoundingBox" spreadMethod="pad" gradientTransform="rotate(-83.98) scale(0.98 0.64)"><stop offset="0.0" stop-color="rgb(255,244,79)"/><stop offset="0.06" stop-color="rgb(255,232,71)"/><stop offset="0.17" stop-color="rgb(255,200,48)"/><stop offset="0.3" stop-color="rgb(255,152,14)"/><stop offset="0.36" stop-color="rgb(255,139,22)"/><stop offset="0.46" stop-color="rgb(255,103,42)"/><stop offset="0.57" stop-color="rgb(255,54,71)"/><stop offset="0.74" stop-color="rgb(227,21,135)"/></radialGradient><linearGradient id="gradient12" x1="1.2071067811865475" y1="0.4999999999999999" x2="-0.20710678118654757" y2="0.5000000000000001" gradientUnits="objectBoundingBox" spreadMethod="pad" gradientTransform="translate(-5.551115123125783e-17 0.0) rotate(180.0)"><stop offset="0.17" stop-color="rgb(255,244,79)" stop-opacity="0.8"/><stop offset="0.27" stop-color="rgb(255,244,79)" stop-opacity="0.63"/><stop offset="0.49" stop-color="rgb(255,244,79)" stop-opacity="0.22"/><stop offset="0.6" stop-color="rgb(255,244,79)" stop-opacity="0.0"/></linearGradient><radialGradient id="gradient11" cx="0.5" cy="0.5" r="0.5" fx="0.5" fy="0.5" gradientUnits="objectBoundingBox" spreadMethod="pad" gradientTransform="scale(0.98 0.98)"><stop offset="0.09" stop-color="rgb(255,244,79)"/><stop offset="0.23" stop-color="rgb(255,225,65)"/><stop offset="0.51" stop-color="rgb(255,175,30)"/><stop offset="0.63" stop-color="rgb(255,152,14)"/></radialGradient><radialGradient id="gradient5" cx="0.5" cy="0.5" r="0.5" fx="0.5" fy="0.5" gradientUnits="objectBoundingBox" spreadMethod="pad" gradientTransform="scale(0.98 0.98)"><stop offset="0.35" stop-color="rgb(58,142,230)"/><stop offset="0.47" stop-color="rgb(92,121,240)"/><stop offset="0.67" stop-color="rgb(144,89,255)"/><stop offset="1.0" stop-color="rgb(193,57,230)"/></radialGradient><radialGradient id="gradient2" cx="0.5" cy="0.5" r="0.5" fx="0.5" fy="0.5" gradientUnits="objectBoundingBox" spreadMethod="pad" gradientTransform="scale(0.98 0.98)"><stop offset="0.13" stop-color="rgb(255,189,79)"/><stop offset="0.19" stop-color="rgb(255,172,49)"/><stop offset="0.25" stop-color="rgb(255,157,23)"/><stop offset="0.28" stop-color="rgb(255,152,14)"/><stop offset="0.4" stop-color="rgb(255,86,59)"/><stop offset="0.47" stop-color="rgb(255,55,80)"/><stop offset="0.71" stop-color="rgb(245,21,108)"/><stop offset="0.78" stop-color="rgb(235,8,120)"/><stop offset="0.86" stop-color="rgb(229,0,128)"/></radialGradient><radialGradient id="gradient6" cx="0.5" cy="0.5" r="0.5" fx="0.5" fy="0.5" gradientUnits="objectBoundingBox" spreadMethod="pad" gradientTransform="rotate(13.6) scale(0.98 1.15)"><stop offset="0.21" stop-color="rgb(144,89,255)" stop-opacity="0.0"/><stop offset="0.28" stop-color="rgb(140,79,243)" stop-opacity="0.06"/><stop offset="0.75" stop-color="rgb(119,22,168)" stop-opacity="0.45"/><stop offset="0.97" stop-color="rgb(110,0,139)" stop-opacity="0.6"/></radialGradient><radialGradient id="gradient8" cx="0.5" cy="0.5" r="0.5" fx="0.5" fy="0.5" gradientUnits="objectBoundingBox" spreadMethod="pad" gradientTransform="scale(0.98 0.98)"><stop offset="0.11" stop-color="rgb(255,244,79)"/><stop offset="0.46" stop-color="rgb(255,152,14)"/><stop offset="0.62" stop-color="rgb(255,86,52)"/><stop offset="0.72" stop-color="rgb(255,54,71)"/><stop offset="0.9" stop-color="rgb(227,21,135)"/></radialGradient><radialGradient id="gradient3" cx="0.5" cy="0.5" r="0.5" fx="0.5" fy="0.5" gradientUnits="objectBoundingBox" spreadMethod="pad" gradientTransform="scale(0.98 0.98)"><stop offset="0.3" stop-color="rgb(150,14,24)"/><stop offset="0.35" stop-color="rgb(177,25,39)" stop-opacity="0.74"/><stop offset="0.43" stop-color="rgb(219,41,61)" stop-opacity="0.34"/><stop offset="0.5" stop-color="rgb(245,51,75)" stop-opacity="0.09"/><stop offset="0.53" stop-color="rgb(255,55,80)" stop-opacity="0.0"/></radialGradient><radialGradient id="gradient4" cx="0.5" cy="0.5" r="0.5" fx="0.5" fy="0.5" gradientUnits="objectBoundingBox" spreadMethod="pad" gradientTransform="scale(0.98 0.98)"><stop offset="0.13" stop-color="rgb(255,244,79)"/><stop offset="0.25" stop-color="rgb(255,220,62)"/><stop offset="0.51" stop-color="rgb(255,157,18)"/><stop offset="0.53" stop-color="rgb(255,152,14)"/></radialGradient><linearGradient id="gradient1" x1="1.2071067811865475" y1="0.4999999999999999" x2="-0.20710678118654757" y2="0.5000000000000001" gradientUnits="objectBoundingBox" spreadMethod="pad" gradientTransform="translate(-5.551115123125783e-17 0.0) rotate(180.0)"><stop offset="0.05" stop-color="rgb(255,244,79)"/><stop offset="0.11" stop-color="rgb(255,232,71)"/><stop offset="0.23" stop-color="rgb(255,200,48)"/><stop offset="0.37" stop-color="rgb(255,152,14)"/><stop offset="0.4" stop-color="rgb(255,139,22)"/><stop offset="0.46" stop-color="rgb(255,103,42)"/><stop offset="0.53" stop-color="rgb(255,54,71)"/><stop offset="0.7" stop-color="rgb(227,21,135)"/></linearGradient><style>      .cls-1 {
        fill: #ffffff;
        stroke: none;
        stroke-width: 0px;
      }

      .cls-2 {
        stroke: none;
        stroke-width: 0px;
      }

      .cls-3 {
        stroke: none;
        stroke-width: 0px;
      }

      .cls-4 {
        stroke: none;
        stroke-width: 0px;
      }

      .cls-5 {
        fill: #000000;
        fill-opacity: 0.2;
        stroke: none;
        stroke-width: 0px;
      }

      .cls-6 {
        stroke: none;
        stroke-width: 0px;
      }

      .cls-7 {
        stroke: none;
        stroke-width: 0px;
      }

      .cls-8 {
        stroke: none;
        stroke-width: 0px;
      }

      .cls-9 {
        stroke: none;
        stroke-width: 0px;
      }

      .cls-10 {
        stroke: none;
        stroke-width: 0px;
      }

      .cls-11 {
        stroke: none;
        stroke-width: 0px;
      }

      .cls-12 {
        stroke: none;
        stroke-width: 0px;
      }

      .cls-13 {
        stroke: none;
        stroke-width: 0px;
      }

      .cls-14 {
        fill: #000000;
        stroke: none;
        stroke-width: 0px;
      }

      .cls-15 {
        stroke: none;
        stroke-width: 0px;
      }

</style>
</defs><g id="layer-0">
<path id="shape-C343E1FC-C0E2-4B6B-AF86-4E48914B24D0" class="cls-5" d="M -4608.0 -4608.0 L 5632.0 -4608.0 L 5632.0 5632.0 L -4608.0 5632.0 Z"/>
</g>
<g id="layer-1">
<path id="shape-B8CD3A72-A350-4833-B273-BA347125811B" class="cls-1" d="M 0.0 0.0 L 1024.0 0.0 L 1024.0 1024.0 L 0.0 1024.0 Z"/>
</g>
<g id="layer-2">
<path id="shape-C28F94E1-1ABA-4035-A884-E32F539E319A" class="cls-14" d="M 143.49 0.0 L 880.51 0.0 C 1024.0 0.0 1024.0 143.49 1024.0 143.49 L 1024.0 880.51 C 1024.0 1024.0 880.51 1024.0 880.51 1024.0 L 143.49 1024.0 C 0.0 1024.0 0.0 880.51 0.0 880.51 L 0.0 143.49 C 0.0 0.0 143.49 0.0 143.49 0.0 Z"/>
<path id="shape-E56F450B-12C0-4F37-BD78-976A0A52D774" class="cls-13" d="M 870.94 380.62 C 854.1 340.08 819.95 296.31 793.21 282.47 C 812.2800000000001 319.43 825.52 359.12 832.45 400.13 L 832.5200000000001 400.78 C 788.71 291.52 714.45 247.39999999999998 653.7700000000001 151.44999999999996 C 650.7 146.59999999999997 647.6300000000001 141.72999999999996 644.6400000000001 136.59999999999997 C 642.9300000000001 133.66999999999996 641.5600000000001 131.02999999999997 640.3700000000001 128.59999999999997 C 637.8500000000001 123.71999999999997 635.9100000000001 118.56999999999996 634.5900000000001 113.23999999999997 C 634.5900000000001 112.72999999999996 634.2200000000001 112.29999999999997 633.7100000000002 112.23999999999997 C 633.4700000000001 112.16999999999997 633.2200000000001 112.16999999999997 632.9800000000001 112.23999999999997 C 632.9300000000002 112.23999999999997 632.8500000000001 112.32999999999997 632.7900000000001 112.34999999999997 C 632.73 112.36999999999996 632.6 112.45999999999997 632.5100000000001 112.49999999999997 L 632.6600000000001 112.23999999999997 C 535.3400000000001 169.26999999999998 502.30000000000007 274.83 499.30000000000007 327.65 C 460.4200000000001 330.32 423.25000000000006 344.65 392.63000000000005 368.78 C 389.44000000000005 366.07 386.1000000000001 363.53999999999996 382.63000000000005 361.2 C 373.80000000000007 330.27 373.43000000000006 297.53999999999996 381.5400000000001 266.41999999999996 C 345.80000000000007 283.74999999999994 314.0400000000001 308.30999999999995 288.2800000000001 338.55999999999995 L 288.1000000000001 338.55999999999995 C 272.74000000000007 319.0799999999999 273.8200000000001 254.84999999999997 274.7000000000001 241.42999999999995 C 270.1600000000001 243.25999999999996 265.8200000000001 245.55999999999995 261.7600000000001 248.29999999999995 C 248.2000000000001 257.97999999999996 235.53000000000011 268.84999999999997 223.8900000000001 280.77 C 210.6200000000001 294.22999999999996 198.5100000000001 308.78 187.6700000000001 324.26 L 187.6700000000001 324.32 L 187.6700000000001 324.25 C 162.7600000000001 359.58 145.0900000000001 399.51 135.6900000000001 441.71 L 135.1700000000001 444.27 C 134.4400000000001 447.68 131.8100000000001 464.77 131.3600000000001 468.47999999999996 C 131.3600000000001 468.77 131.3000000000001 469.03999999999996 131.2700000000001 469.33 C 127.8800000000001 486.96999999999997 125.7800000000001 504.84 124.98000000000009 522.79 L 124.98000000000009 524.79 C 125.36000000000008 738.97 299.1500000000001 912.29 513.1500000000001 911.91 C 701.3500000000001 911.5799999999999 862.1000000000001 775.9499999999999 894.2500000000001 590.3599999999999 C 894.9000000000001 585.3599999999999 895.4300000000001 580.3999999999999 896.0100000000001 575.3499999999999 C 903.9900000000001 509.3299999999999 895.3500000000001 442.3699999999999 870.8800000000001 380.5499999999999 L 870.9200000000001 380.6099999999999 M 424.37 684.18 C 426.18 685.05 427.88 685.9899999999999 429.74 686.8199999999999 L 430.01 686.9899999999999 C 428.13 686.0899999999999 426.25 685.1499999999999 424.37 684.18 M 832.53 400.89 L 832.53 400.52 L 832.6 400.93 L 832.53 400.89 Z"/>
<path id="shape-31C1912E-69E1-4C26-9AEA-663839ECB65D" class="cls-7" d="M 870.94 380.62 C 854.1 340.08 819.95 296.31 793.21 282.47 C 812.2800000000001 319.43 825.52 359.12 832.45 400.13 L 832.45 400.5 L 832.5200000000001 400.91 C 862.3900000000001 486.45000000000005 858.07 580.23 820.4600000000002 662.6500000000001 C 776.0500000000002 758.0100000000001 668.6000000000001 855.7500000000001 500.35000000000014 850.95 C 318.60000000000014 845.8000000000001 158.45000000000016 710.7800000000001 128.56000000000012 533.98 C 123.11000000000011 506.1 128.56000000000012 491.96000000000004 131.30000000000013 469.3 C 127.56000000000013 486.90000000000003 125.48000000000013 504.82 125.07000000000012 522.8100000000001 L 125.07000000000012 524.8100000000001 C 125.45000000000012 738.99 299.2400000000001 912.3100000000001 513.2400000000001 911.9300000000001 C 701.44 911.6 862.19 775.97 894.3400000000001 590.3800000000001 C 894.9900000000001 585.3800000000001 895.5200000000001 580.4200000000001 896.1000000000001 575.3700000000001 C 904.0800000000002 509.35000000000014 895.4400000000002 442.3900000000001 870.9700000000001 380.5700000000001 L 870.9300000000002 380.6200000000001 Z"/>
<path id="shape-CAE4137A-7255-436A-ADE7-2CB25A9F98AD" class="cls-15" d="M 870.94 380.62 C 854.1 340.08 819.95 296.31 793.21 282.47 C 812.2800000000001 319.43 825.52 359.12 832.45 400.13 L 832.45 400.5 L 832.5200000000001 400.91 C 862.3900000000001 486.45000000000005 858.07 580.23 820.4600000000002 662.6500000000001 C 776.0500000000002 758.0100000000001 668.6000000000001 855.7500000000001 500.35000000000014 850.95 C 318.60000000000014 845.8000000000001 158.45000000000016 710.7800000000001 128.56000000000012 533.98 C 123.11000000000011 506.1 128.56000000000012 491.96000000000004 131.30000000000013 469.3 C 127.56000000000013 486.90000000000003 125.48000000000013 504.82 125.07000000000012 522.8100000000001 L 125.07000000000012 524.8100000000001 C 125.45000000000012 738.99 299.2400000000001 912.3100000000001 513.2400000000001 911.9300000000001 C 701.44 911.6 862.19 775.97 894.3400000000001 590.3800000000001 C 894.9900000000001 585.3800000000001 895.5200000000001 580.4200000000001 896.1000000000001 575.3700000000001 C 904.0800000000002 509.35000000000014 895.4400000000002 442.3900000000001 870.9700000000001 380.5700000000001 L 870.9300000000002 380.6200000000001 Z"/>
<path id="shape-C23CA9BF-E6D5-44C9-AF4C-05B1CBCA0A1C" class="cls-11" d="M 682.6 426.15 C 683.44 426.73999999999995 684.22 427.33 685.01 427.91999999999996 C 675.28 410.65 663.16 394.8299999999999 649.02 380.94999999999993 C 528.56 260.38999999999993 617.46 119.60999999999996 632.4399999999999 112.40999999999991 L 632.5899999999999 112.18999999999991 C 535.27 169.2199999999999 502.2299999999999 274.7799999999999 499.2299999999999 327.5999999999999 C 503.7499999999999 327.2899999999999 508.2299999999999 326.9099999999999 512.8499999999999 326.9099999999999 C 583.1399999999999 327.0499999999999 647.9499999999999 364.9299999999999 682.5999999999999 426.1299999999999 L 682.5999999999999 426.14999999999986 Z"/>
<path id="shape-054A19B8-08E5-446D-9E2E-D531003E3541" class="cls-2" d="M 513.05 450.26 C 512.41 459.90999999999997 478.35999999999996 493.16999999999996 466.44999999999993 493.16999999999996 C 356.2799999999999 493.16999999999996 338.38999999999993 559.88 338.38999999999993 559.88 C 343.2699999999999 616.05 382.37999999999994 662.33 429.6499999999999 686.75 C 431.80999999999995 687.87 433.99999999999994 688.88 436.18999999999994 689.87 C 439.97999999999996 691.55 443.7699999999999 693.11 447.56999999999994 694.53 C 463.79999999999995 700.28 480.78999999999996 703.56 497.98999999999995 704.27 C 691.1299999999999 713.3299999999999 728.52 473.15 589.15 403.40999999999997 C 622.03 399.13 655.3199999999999 407.21999999999997 682.5699999999999 426.10999999999996 C 647.92 364.90999999999997 583.1099999999999 327.02 512.8199999999999 326.89 C 508.2199999999999 326.89 503.7199999999999 327.27 499.19999999999993 327.58 C 460.31999999999994 330.25 423.1499999999999 344.58 392.5299999999999 368.71 C 398.43999999999994 373.71 405.1099999999999 380.4 419.1499999999999 394.25 C 445.43999999999994 420.17 512.8699999999999 447.03 513.02 450.18 L 513.04 450.26 Z"/>
<path id="shape-C264D290-26FF-4280-A68F-CF97FD6DC1C3" class="cls-8" d="M 513.05 450.26 C 512.41 459.90999999999997 478.35999999999996 493.16999999999996 466.44999999999993 493.16999999999996 C 356.2799999999999 493.16999999999996 338.38999999999993 559.88 338.38999999999993 559.88 C 343.2699999999999 616.05 382.37999999999994 662.33 429.6499999999999 686.75 C 431.80999999999995 687.87 433.99999999999994 688.88 436.18999999999994 689.87 C 439.97999999999996 691.55 443.7699999999999 693.11 447.56999999999994 694.53 C 463.79999999999995 700.28 480.78999999999996 703.56 497.98999999999995 704.27 C 691.1299999999999 713.3299999999999 728.52 473.15 589.15 403.40999999999997 C 622.03 399.13 655.3199999999999 407.21999999999997 682.5699999999999 426.10999999999996 C 647.92 364.90999999999997 583.1099999999999 327.02 512.8199999999999 326.89 C 508.2199999999999 326.89 503.7199999999999 327.27 499.19999999999993 327.58 C 460.31999999999994 330.25 423.1499999999999 344.58 392.5299999999999 368.71 C 398.43999999999994 373.71 405.1099999999999 380.4 419.1499999999999 394.25 C 445.43999999999994 420.17 512.8699999999999 447.03 513.02 450.18 L 513.04 450.26 Z"/>
<path id="shape-662A97E6-BA1C-4CA6-A39B-8389FFA8AFEA" class="cls-6" d="M 374.49 355.91 C 377.63 357.91 380.22 359.65000000000003 382.49 361.22 C 373.66 330.29 373.29 297.56000000000006 381.40000000000003 266.44000000000005 C 345.66 283.77000000000004 313.90000000000003 308.33000000000004 288.14000000000004 338.58000000000004 C 290.03000000000003 338.53000000000003 346.23 337.52000000000004 374.49 355.91 Z"/>
<path id="shape-5AFD1D52-F30D-4A9C-81DB-121BB39B8F28" class="cls-3" d="M 128.5 534.0 C 158.4 710.79 318.53999999999996 845.87 500.29 850.97 C 668.54 855.73 776.01 757.98 820.4000000000001 662.6700000000001 C 858.0100000000001 580.2500000000001 862.33 486.4700000000001 832.46 400.93000000000006 L 832.46 400.56000000000006 C 832.46 400.27000000000004 832.4000000000001 400.1000000000001 832.46 400.19000000000005 L 832.5300000000001 400.84000000000003 C 846.2800000000001 490.66 800.6300000000001 577.63 729.2600000000001 636.57 L 729.0400000000001 637.07 C 589.98 750.4300000000001 456.9200000000001 705.45 430.0300000000001 687.1 C 428.1500000000001 686.2 426.2700000000001 685.26 424.3900000000001 684.2900000000001 C 343.3200000000001 645.5100000000001 309.8200000000001 571.6300000000001 317.0200000000001 508.20000000000005 C 277.7100000000001 508.78000000000003 241.7400000000001 486.14000000000004 225.2400000000001 450.4200000000001 C 268.5100000000001 423.8900000000001 322.4400000000001 421.7200000000001 367.7000000000001 444.70000000000005 C 413.5800000000001 465.54 465.7800000000001 467.6 513.1600000000001 450.4200000000001 C 513.0100000000001 447.2700000000001 445.5800000000001 420.4000000000001 419.2900000000001 394.49000000000007 C 405.24000000000007 380.63000000000005 398.5800000000001 373.96000000000004 392.6700000000001 368.95000000000005 C 389.4800000000001 366.24000000000007 386.1400000000001 363.71000000000004 382.6700000000001 361.37000000000006 C 380.37000000000006 359.80000000000007 377.7800000000001 358.1000000000001 374.6700000000001 356.06000000000006 C 346.4100000000001 337.6700000000001 290.20000000000005 338.68000000000006 288.3500000000001 338.7300000000001 L 288.1700000000001 338.7300000000001 C 272.81000000000006 319.25000000000006 273.8900000000001 255.0200000000001 274.7700000000001 241.60000000000008 C 270.2300000000001 243.4300000000001 265.8900000000001 245.73000000000008 261.8300000000001 248.47000000000008 C 248.2700000000001 258.1500000000001 235.6000000000001 269.0200000000001 223.9600000000001 280.94000000000005 C 210.6500000000001 294.36000000000007 198.4800000000001 308.88000000000005 187.5900000000001 324.33000000000004 L 187.5900000000001 324.39000000000004 L 187.5900000000001 324.32000000000005 C 162.6800000000001 359.65000000000003 145.0100000000001 399.58000000000004 135.6100000000001 441.78000000000003 C 135.4200000000001 442.57000000000005 121.65000000000009 502.8 128.4400000000001 534.0400000000001 L 128.5100000000001 534.0200000000001 Z"/>
<path id="shape-1AF86F9F-B3B2-4E64-8C4A-819E4F96CE88" class="cls-4" d="M 649.01 380.92 C 663.16 394.82 675.27 410.66 685.0 427.95000000000005 C 687.13 429.56000000000006 689.12 431.16 690.81 432.71000000000004 C 778.65 513.75 732.63 628.3100000000001 729.1999999999999 636.4200000000001 C 800.56 577.58 846.17 490.5400000000001 832.4699999999999 400.69000000000005 C 788.6399999999999 291.33000000000004 714.3 247.21000000000006 653.7199999999999 151.26000000000005 C 650.6499999999999 146.41000000000005 647.5799999999999 141.54000000000005 644.5899999999999 136.41000000000005 C 642.8799999999999 133.48000000000005 641.5099999999999 130.84000000000006 640.3199999999999 128.41000000000005 C 637.8 123.53000000000006 635.8599999999999 118.38000000000005 634.54 113.05000000000005 C 634.54 112.54000000000005 634.17 112.11000000000006 633.66 112.05000000000005 C 633.42 111.98000000000006 633.17 111.98000000000006 632.93 112.05000000000005 C 632.88 112.05000000000005 632.8 112.14000000000006 632.7399999999999 112.16000000000005 C 632.6799999999998 112.18000000000005 632.5499999999998 112.27000000000005 632.4599999999999 112.31000000000006 C 617.4699999999999 119.42000000000006 528.5899999999999 260.2900000000001 649.06 380.75000000000006 L 649.01 380.9200000000001 Z"/>
<path id="shape-31826919-9A5E-4265-8A2F-103F1E889CBC" class="cls-9" d="M 690.79 432.75 C 689.0999999999999 431.2 687.11 429.6 684.98 427.99 C 684.19 427.40000000000003 683.41 426.81 682.57 426.22 C 655.32 407.33000000000004 622.0200000000001 399.24 589.1500000000001 403.52000000000004 C 728.5100000000001 473.26000000000005 691.1200000000001 713.3800000000001 497.9900000000001 704.3800000000001 C 480.79000000000013 703.6700000000001 463.8000000000001 700.3900000000001 447.5700000000001 694.6400000000001 C 443.7800000000001 693.2200000000001 439.9900000000001 691.6700000000001 436.1900000000001 689.9800000000001 C 434.0000000000001 688.9800000000001 431.8100000000001 687.9800000000001 429.6500000000001 686.8600000000001 L 429.9200000000001 687.0300000000001 C 456.8500000000001 705.4300000000001 589.8700000000001 750.3800000000001 728.9300000000001 637.0000000000001 L 729.1500000000001 636.5000000000001 C 732.6200000000001 628.4000000000001 778.6500000000001 513.8300000000002 690.7600000000001 432.7900000000001 L 690.7800000000001 432.75000000000006 Z"/>
<path id="shape-F16E4EC2-AC00-4571-9DE8-3E408A32D44A" class="cls-10" d="M 338.4 559.82 C 338.4 559.82 356.28 493.11000000000007 466.46 493.11000000000007 C 478.37 493.11000000000007 512.4499999999999 459.8400000000001 513.06 450.20000000000005 C 465.68999999999994 467.37000000000006 413.47999999999996 465.32000000000005 367.5999999999999 444.48 C 322.3399999999999 421.51 268.4099999999999 423.67 225.1399999999999 450.20000000000005 C 241.6399999999999 485.9200000000001 277.6099999999999 508.56000000000006 316.9199999999999 507.98 C 309.7399999999999 571.38 343.2299999999999 645.25 424.2899999999999 684.07 C 426.0999999999999 684.94 427.7999999999999 685.88 429.6599999999999 686.71 C 382.3399999999999 662.25 343.2799999999999 615.98 338.3999999999999 559.84 L 338.3999999999999 559.8100000000001 Z"/>
<path id="shape-8DB1FDBC-64F0-4806-9F93-6A83A73A053A" class="cls-12" d="M 870.94 380.62 C 854.1 340.08 819.95 296.31 793.21 282.47 C 812.2800000000001 319.43 825.52 359.12 832.45 400.13 L 832.5200000000001 400.78 C 788.71 291.52 714.45 247.39999999999998 653.7700000000001 151.44999999999996 C 650.7 146.59999999999997 647.6300000000001 141.72999999999996 644.6400000000001 136.59999999999997 C 642.9300000000001 133.66999999999996 641.5600000000001 131.02999999999997 640.3700000000001 128.59999999999997 C 637.8500000000001 123.71999999999997 635.9100000000001 118.56999999999996 634.5900000000001 113.23999999999997 C 634.5900000000001 112.72999999999996 634.2200000000001 112.29999999999997 633.7100000000002 112.23999999999997 C 633.4700000000001 112.16999999999997 633.2200000000001 112.16999999999997 632.9800000000001 112.23999999999997 C 632.9300000000002 112.23999999999997 632.8500000000001 112.32999999999997 632.7900000000001 112.34999999999997 C 632.73 112.36999999999996 632.6 112.45999999999997 632.5100000000001 112.49999999999997 L 632.6600000000001 112.23999999999997 C 535.3400000000001 169.26999999999998 502.30000000000007 274.83 499.30000000000007 327.65 C 503.82000000000005 327.34 508.30000000000007 326.96 512.9200000000001 326.96 C 583.21 327.09999999999997 648.0200000000001 364.97999999999996 682.6700000000001 426.17999999999995 C 655.4200000000001 407.28999999999996 622.1200000000001 399.19999999999993 589.2500000000001 403.47999999999996 C 728.6100000000001 473.21999999999997 691.2200000000001 713.3399999999999 498.09000000000015 704.3399999999999 C 480.89000000000016 703.6299999999999 463.90000000000015 700.3499999999999 447.67000000000013 694.5999999999999 C 443.8800000000001 693.18 440.09000000000015 691.6299999999999 436.29000000000013 689.9399999999999 C 434.10000000000014 688.9399999999999 431.91000000000014 687.9399999999999 429.7500000000001 686.8199999999999 L 430.0200000000001 686.9899999999999 C 428.1400000000001 686.0899999999999 426.2600000000001 685.1499999999999 424.3800000000001 684.18 C 426.1900000000001 685.05 427.8900000000001 685.9899999999999 429.7500000000001 686.8199999999999 C 382.4300000000001 662.3499999999999 343.3700000000001 616.0799999999999 338.4900000000001 559.9499999999999 C 338.4900000000001 559.9499999999999 356.3700000000001 493.23999999999995 466.5500000000001 493.23999999999995 C 478.46000000000015 493.23999999999995 512.5400000000001 459.96999999999997 513.1500000000001 450.3299999999999 C 513.0000000000001 447.17999999999995 445.5700000000001 420.30999999999995 419.2800000000001 394.3999999999999 C 405.2300000000001 380.5399999999999 398.5700000000001 373.8699999999999 392.6600000000001 368.8599999999999 C 389.4700000000001 366.1499999999999 386.1300000000001 363.6199999999999 382.6600000000001 361.2799999999999 C 373.8300000000001 330.3499999999999 373.4600000000001 297.6199999999999 381.5700000000001 266.4999999999999 C 345.8300000000001 283.82999999999987 314.0700000000001 308.3899999999999 288.3100000000001 338.6399999999999 L 288.1300000000001 338.6399999999999 C 272.7700000000001 319.15999999999985 273.85000000000014 254.9299999999999 274.73000000000013 241.50999999999988 C 270.1900000000001 243.3399999999999 265.85000000000014 245.63999999999987 261.79000000000013 248.37999999999988 C 248.23000000000013 258.0599999999999 235.56000000000014 268.9299999999999 223.92000000000013 280.8499999999999 C 210.65000000000012 294.3099999999999 198.54000000000013 308.8599999999999 187.70000000000013 324.3399999999999 L 187.70000000000013 324.3999999999999 L 187.70000000000013 324.3299999999999 C 162.79000000000013 359.6599999999999 145.12000000000012 399.5899999999999 135.72000000000014 441.7899999999999 L 135.20000000000013 444.3499999999999 C 134.47000000000014 447.75999999999993 131.20000000000013 465.0899999999999 130.73000000000013 468.8099999999999 C 127.74000000000014 486.6999999999999 125.83000000000013 504.7499999999999 125.01000000000013 522.8699999999999 L 125.01000000000013 524.8699999999999 C 125.39000000000013 739.05 299.1800000000001 912.3699999999999 513.1800000000002 911.9899999999999 C 701.3800000000001 911.6599999999999 862.1300000000001 776.0299999999999 894.2800000000002 590.4399999999998 C 894.9300000000002 585.4399999999998 895.4600000000002 580.4799999999998 896.0400000000002 575.4299999999998 C 904.0200000000002 509.40999999999985 895.3800000000002 442.4499999999998 870.9100000000002 380.6299999999998 L 870.9300000000002 380.60999999999984 M 832.5 400.54 L 832.57 400.95000000000005 L 832.5 400.54 Z"/>
</g>
</svg>