<?xml version="1.0" encoding="UTF-8"?>
<svg xmlns="http://www.w3.org/2000/svg" viewBox="0 0 1024 1024">
  <defs>
    <style>
      .cls-1 {
        fill: #4470ea;
      }

      .cls-1, .cls-2, .cls-3, .cls-4, .cls-5, .cls-6, .cls-7, .cls-8 {
        stroke-width: 0px;
      }

      .cls-2 {
        fill: #fbca08;
        fill-rule: evenodd;
      }

      .cls-3 {
        fill: #000;
        mix-blend-mode: multiply;
      }

      .cls-4 {
        fill: #812684;
      }

      .cls-5 {
        fill: #ef6d19;
      }

      .cls-6 {
        fill: #7eb900;
      }

      .cls-9 {
        isolation: isolate;
      }

      .cls-7 {
        fill: #d31c29;
      }

      .cls-8 {
        fill: #52b036;
      }
    </style>
  </defs>
  <g class="cls-9">
    <g id="Arcade">
      <rect class="cls-3" y="0" width="1024" height="1024" rx="143.49" ry="143.49"/>
      <g>
        <g>
          <path class="cls-8" d="M821.63,383.05c-39.65-49.64-95.63-79.27-149.75-79.27-38.36,0-64.91,10.08-88.34,18.98-19.11,7.26-37.17,14.12-58.55,14.12-23.17,0-43.77-7.38-65.59-15.19-24.53-8.78-49.89-17.86-81.81-17.86-61.59,0-124.31,37.8-163.64,98.62-.27.4-.53.81-.79,1.23l-2.47,4.09,580.16.04.75-.64c8.81-7.5,18.64-14.25,29.21-20.06l2.8-1.54-2-2.5Z"/>
          <path class="cls-6" d="M498.46,314.09l2.17.07c1.1.03,2.2.05,3.31.05,41.84,0,88.63-24.38,117.41-61.46h0c30.31-39.09,44.14-85.5,37.95-127.33l-.37-2.46-2.48.17c-41.51,2.86-90.61,29.35-119.41,64.43-31.6,38.54-46.17,85.04-38.98,124.39l.39,2.14Z"/>
        </g>
        <path class="cls-2" d="M213.79,404.53c-17.12,26.93-29.48,65.52-32.62,99.38l556.37-.07c6-37.04,25.58-72.37,57.22-99.27l-580.97-.04h.03-.03Z"/>
        <path class="cls-5" d="M750.04,601.33c-13.55-30.67-17.9-64.21-12.57-97.01l.51-3.12H181.44s-.27,2.41-.27,2.41c-3.47,31.29-2.49,64.67,2.9,99.2l.36,2.28,567.29.02-1.67-3.78Z"/>
        <path class="cls-7" d="M843.27,689.77c-41.96-15.92-75.07-47.33-93.23-88.44l-.71-1.6-565.75-.02.48,3.11c5.16,33.16,14.27,66.48,27.08,99.06l.67,1.71,628.35.04,1.46-3.24c1.02-2.25,2.07-4.58,3.14-6.99l1.17-2.61-2.67-1.01Z"/>
        <path class="cls-4" d="M209.7,698.19l1.45,3.68c12.5,31.8,28.44,62.62,47.39,91.6,1.62,2.47,3.27,4.95,4.93,7.44l.8,1.2,520.55-.05.8-1.17c3.42-5.01,6.62-9.86,9.02-13.53,21.11-32.26,30.06-49.6,46.23-85.31l1.72-3.8-632.9-.04Z"/>
        <path class="cls-1" d="M260.66,796.71l2.81,4.19c30.88,46.09,73.53,99.07,129.68,99.59.37,0,.74,0,1.1,0,23.44,0,39.28-7.08,56.02-14.58,19.62-8.78,39.92-17.86,75.81-18.06,36.12-.21,56.05,8.99,75.36,17.87,16.61,7.64,32.32,14.86,56.21,14.65,23.8-.22,48.07-11.18,72.12-32.56,17.83-15.85,35.58-37.12,55.86-66.95l2.86-4.21-527.83.05Z"/>
      </g>
    </g>
  </g>
</svg>