<?xml version="1.0" encoding="UTF-8"?>
<svg xmlns="http://www.w3.org/2000/svg" xmlns:xlink="http://www.w3.org/1999/xlink" viewBox="0 0 1024 1024">
  <defs>
    <style>
      .cls-1 {
        fill: url(#linear-gradient);
      }

      .cls-1, .cls-2, .cls-3 {
        stroke-width: 0px;
      }

      .cls-2 {
        fill: #000;
        mix-blend-mode: multiply;
      }

      .cls-4 {
        isolation: isolate;
      }

      .cls-3 {
        fill: #fff;
      }
    </style>
    <linearGradient id="linear-gradient" x1="512" y1="205.78" x2="512" y2="823.21" gradientUnits="userSpaceOnUse">
      <stop offset="0" stop-color="#ed1c24"/>
      <stop offset=".11" stop-color="#d92734"/>
      <stop offset=".34" stop-color="#a8465e"/>
      <stop offset=".67" stop-color="#5877a3"/>
      <stop offset="1" stop-color="#00aeef"/>
    </linearGradient>
  </defs>
  <g class="cls-4">
    <g id="Arcade">
      <rect class="cls-2" y="0" width="1024" height="1024" rx="143.49" ry="143.49"/>
      <path class="cls-3" d="M895.8,837.18c-4.31-.49-106.54-12.77-188.62-80.18-77.31-63.45-106.41-119.46-126.32-184.05-3.82-12.41-6.99-27.93-9.62-45.15v309.48h-118.35v-310.27c-2.65,17.54-5.86,33.34-9.74,45.94-19.91,64.59-49.01,120.6-126.33,184.05-81.63,67.4-184.3,79.68-188.63,80.17l-17.8,2.01v-124.66l14.33-1.51c.36-.04,40.28-4.7,87.9-31.95,27.79-15.9,52.79-36.31,74.31-60.67,26.96-30.51,48.55-67.41,64.19-109.67,12.51-33.7,33.75-113.05,35.61-265.93v-60.01h250.56v59.99c.89,65.93,6.7,188.04,35.6,265.93,15.73,42.25,37.39,79.16,64.37,109.68,21.53,24.36,46.53,44.77,74.29,60.67,47.57,27.25,87.38,31.91,87.78,31.95l14.24,1.57.04,14.33v110.26l-17.81-2.02Z"/>
      <path class="cls-1" d="M126.39,729.9s167.58-17.64,239.72-212.65c30.08-81.05,35.81-205.77,36.6-271.39v-44.1h46.75v117.92c0,43.22-2.82,188.57-21.61,249.51-18.79,60.95-45.95,114.66-121.19,176.4-78.94,65.18-180.28,76.64-180.28,76.64v-92.34ZM897.61,729.9s-167.14-17.64-239.72-212.65c-30.08-81.05-35.72-205.77-36.6-271.39v-44.1h-46.74v117.92c0,43.22,2.82,188.57,21.61,249.51,18.79,60.95,45.95,114.66,121.18,176.4,79.38,65.18,180.28,76.64,180.28,76.64v-92.34ZM555.24,201.76h-86.35v620.48h86.35V201.76Z"/>
    </g>
  </g>
</svg>