<?xml version="1.0" encoding="UTF-8"?>
<svg id="Arcade" xmlns="http://www.w3.org/2000/svg" xmlns:xlink="http://www.w3.org/1999/xlink" viewBox="0 0 1024 1024">
  <defs>
    <style>
      .cls-1 {
        fill: url(#linear-gradient);
      }

      .cls-1, .cls-2 {
        stroke-width: 0px;
      }

      .cls-2 {
        fill: #000;
      }
    </style>
    <linearGradient id="linear-gradient" x1="-17.07" y1="512" x2="1018.12" y2="512" gradientUnits="userSpaceOnUse">
      <stop offset="0" stop-color="#ed1c24"/>
      <stop offset=".25" stop-color="#e99740"/>
      <stop offset=".5" stop-color="#efe562"/>
      <stop offset=".75" stop-color="#a6c75f"/>
      <stop offset=".99" stop-color="#00aeef"/>
    </linearGradient>
  </defs>
  <rect class="cls-2" y="0" width="1024" height="1024" rx="143.49" ry="143.49"/>
  <path class="cls-1" d="M235.99,518.81h45.49l-72.63,135.38h-54.48l-72.63-135.38h45.32l49.67,92.46c.51.95,1.29,1.73,2.24,2.24,2.69,1.45,6.05.45,7.5-2.24,0,0,49.52-92.46,49.52-92.46ZM466.98,569.59h-72.83c-4.68,0-8.46-2.73-8.46-8.46s3.78-8.46,8.46-8.46h109.19v-33.85h-117.32c-23.37,0-42.31,18.94-42.31,42.31s18.94,42.31,42.31,42.31h72.83c4.68,0,8.46,4.53,8.46,8.46s-3.78,8.46-8.46,8.46h-112.87v33.85h121.03c23.37,0,42.31-18.96,42.3-42.33,0-23.37-18.96-42.31-42.33-42.3ZM179.61,471.34h-91.51c-9.61-.03-17.4-7.81-17.43-17.43v-32.85c.03-9.61,7.81-17.4,17.43-17.43h91.51v-33.83h-108.64c-23.26,0-42.31,19.03-42.31,42.31v50.78c0,23.26,19.03,42.31,42.31,42.31h108.64v-33.88ZM419.96,505.19h73.13v-33.85h-56.01c-9.61-.03-17.4-7.81-17.43-17.43v-84.12h-41.99v93.06c-.03,23.35,18.88,42.31,42.24,42.34h.05ZM651.88,505.19v-33.85h-99.77c-5.27.11-9.63-4.07-9.74-9.33,0,0,0,0,0,0v-.4c-.1-5.28,4.1-9.64,9.39-9.74h0s92.56,0,92.56,0v-28.74h-92.21c-5.38,0-9.74-4.58-9.74-9.74s4.36-9.74,9.74-9.74h99.77v-33.83h-151.47v93.06c0,23.37,18.94,42.31,42.31,42.31h109.16ZM187.14,462.88v-50.78c0-23.28,19.05-42.31,42.31-42.31h97.97c23.28,0,42.31,19.05,42.31,42.31v50.78c0,23.28-19.05,42.31-42.31,42.31h-97.97c-23.33-.08-42.23-18.98-42.31-42.31ZM229.16,453.91c.03,9.61,7.81,17.4,17.43,17.43h63.74c9.61-.03,17.4-7.81,17.43-17.43v-32.85c-.03-9.61-7.81-17.4-17.43-17.43h-63.74c-9.61.03-17.4,7.81-17.43,17.43v32.85ZM699.8,505.19h108.64v-33.85h-91.51c-9.61-.03-17.4-7.81-17.43-17.43v-32.85c.03-9.61,7.81-17.4,17.43-17.43h91.51v-33.83h-108.64c-23.26,0-42.31,19.03-42.31,42.31v50.78c.08,23.33,18.98,42.22,42.31,42.29ZM995.34,412.1v50.8c0,23.28-19.05,42.31-42.31,42.31h-97.97c-23.28,0-42.31-19.05-42.31-42.31v-50.78c0-23.28,19.05-42.31,42.31-42.31h97.97c23.33.07,42.23,18.96,42.31,42.29ZM953.33,421.07c-.03-9.61-7.81-17.4-17.43-17.43h-63.74c-9.61.03-17.4,7.81-17.43,17.43v32.85c.03,9.61,7.81,17.4,17.43,17.43h63.74c9.61-.03,17.4-7.81,17.43-17.43v-32.85ZM751.36,561.12v50.78c0,23.28-19.05,42.31-42.31,42.31h-97.97c-23.28,0-42.31-19.05-42.31-42.31v-50.78c0-23.28,19.05-42.31,42.31-42.31h97.97c23.33.08,42.23,18.98,42.31,42.31ZM709.34,602.93v-32.85c-.03-9.61-7.81-17.4-17.43-17.43h-63.74c-9.61.03-17.4,7.81-17.43,17.43v32.85c.03,9.61,7.81,17.4,17.43,17.43h63.74c9.61-.03,17.4-7.81,17.43-17.43h0ZM292.25,654.19h41.99v-135.38h-41.99v135.38h0ZM517.11,654.19h41.99v-135.38h-41.99v135.38h0ZM898.9,518.81h-139.76v135.38h41.99v-84.1c.03-9.61,7.81-17.4,17.43-17.43h63.24c9.61.03,17.4,7.81,17.43,17.43v84.12h41.99v-93.09c0-23.37-18.94-42.31-42.31-42.31h0Z"/>
</svg>