<?xml version="1.0" encoding="UTF-8"?>
<svg xmlns="http://www.w3.org/2000/svg" xmlns:xlink="http://www.w3.org/1999/xlink" viewBox="0 0 1024 1024">
  <defs>
    <style>
      .cls-1 {
        fill: url(#linear-gradient);
      }

      .cls-1, .cls-2, .cls-3, .cls-4, .cls-5, .cls-6, .cls-7, .cls-8, .cls-9, .cls-10, .cls-11, .cls-12, .cls-13 {
        stroke-width: 0px;
      }

      .cls-2 {
        fill: url(#radial-gradient);
      }

      .cls-3 {
        fill: url(#radial-gradient-10);
      }

      .cls-4 {
        fill: #000;
        mix-blend-mode: multiply;
      }

      .cls-5 {
        fill: url(#radial-gradient-2);
      }

      .cls-6 {
        fill: url(#radial-gradient-3);
      }

      .cls-7 {
        fill: url(#radial-gradient-4);
      }

      .cls-8 {
        fill: url(#radial-gradient-6);
      }

      .cls-9 {
        fill: url(#radial-gradient-9);
      }

      .cls-10 {
        fill: url(#radial-gradient-8);
      }

      .cls-11 {
        fill: url(#radial-gradient-5);
      }

      .cls-12 {
        fill: url(#radial-gradient-7);
      }

      .cls-13 {
        fill: url(#linear-gradient-2);
      }

      .cls-14 {
        isolation: isolate;
      }
    </style>
    <linearGradient id="linear-gradient" x1="840.81" y1="-10692.28" x2="185.53" y2="-11324.52" gradientTransform="translate(-6.02 -10263.53) scale(.98 -.98)" gradientUnits="userSpaceOnUse">
      <stop offset=".05" stop-color="#fff44f"/>
      <stop offset=".11" stop-color="#ffe847"/>
      <stop offset=".23" stop-color="#ffc830"/>
      <stop offset=".37" stop-color="#ff980e"/>
      <stop offset=".4" stop-color="#ff8b16"/>
      <stop offset=".46" stop-color="#ff672a"/>
      <stop offset=".53" stop-color="#ff3647"/>
      <stop offset=".7" stop-color="#e31587"/>
    </linearGradient>
    <radialGradient id="radial-gradient" cx="-7159.91" cy="-2133.76" fx="-7159.91" fy="-2133.76" r="823.26" gradientTransform="translate(7819.89 -1893.09) scale(.98 -.98)" gradientUnits="userSpaceOnUse">
      <stop offset=".13" stop-color="#ffbd4f"/>
      <stop offset=".19" stop-color="#ffac31"/>
      <stop offset=".25" stop-color="#ff9d17"/>
      <stop offset=".28" stop-color="#ff980e"/>
      <stop offset=".4" stop-color="#ff563b"/>
      <stop offset=".47" stop-color="#ff3750"/>
      <stop offset=".71" stop-color="#f5156c"/>
      <stop offset=".78" stop-color="#eb0878"/>
      <stop offset=".86" stop-color="#e50080"/>
    </radialGradient>
    <radialGradient id="radial-gradient-2" cx="-7465.58" cy="-2469.99" fx="-7465.58" fy="-2469.99" r="823.26" gradientTransform="translate(7819.89 -1893.09) scale(.98 -.98)" gradientUnits="userSpaceOnUse">
      <stop offset=".3" stop-color="#960e18"/>
      <stop offset=".35" stop-color="#b11927" stop-opacity=".74"/>
      <stop offset=".43" stop-color="#db293d" stop-opacity=".34"/>
      <stop offset=".5" stop-color="#f5334b" stop-opacity=".09"/>
      <stop offset=".53" stop-color="#ff3750" stop-opacity="0"/>
    </radialGradient>
    <radialGradient id="radial-gradient-3" cx="-7363.69" cy="-1950.36" fx="-7363.69" fy="-1950.36" r="596.36" gradientTransform="translate(7819.89 -1893.09) scale(.98 -.98)" gradientUnits="userSpaceOnUse">
      <stop offset=".13" stop-color="#fff44f"/>
      <stop offset=".25" stop-color="#ffdc3e"/>
      <stop offset=".51" stop-color="#ff9d12"/>
      <stop offset=".53" stop-color="#ff980e"/>
    </radialGradient>
    <radialGradient id="radial-gradient-4" cx="-7557.28" cy="-2683.96" fx="-7557.28" fy="-2683.96" r="391.97" gradientTransform="translate(7819.89 -1893.09) scale(.98 -.98)" gradientUnits="userSpaceOnUse">
      <stop offset=".35" stop-color="#3a8ee6"/>
      <stop offset=".47" stop-color="#5c79f0"/>
      <stop offset=".67" stop-color="#9059ff"/>
      <stop offset="1" stop-color="#c139e6"/>
    </radialGradient>
    <radialGradient id="radial-gradient-5" cx="-8892.19" cy="-1517.29" fx="-8892.19" fy="-1517.29" r="207.85" gradientTransform="translate(8605.02 -3284.58) rotate(-13.6) scale(.98 -1.15) skewX(.03)" gradientUnits="userSpaceOnUse">
      <stop offset=".21" stop-color="#9059ff" stop-opacity="0"/>
      <stop offset=".28" stop-color="#8c4ff3" stop-opacity=".06"/>
      <stop offset=".75" stop-color="#7716a8" stop-opacity=".45"/>
      <stop offset=".97" stop-color="#6e008b" stop-opacity=".6"/>
    </radialGradient>
    <radialGradient id="radial-gradient-6" cx="-7475.76" cy="-2103.19" fx="-7475.76" fy="-2103.19" r="282.03" gradientTransform="translate(7819.89 -1893.09) scale(.98 -.98)" gradientUnits="userSpaceOnUse">
      <stop offset="0" stop-color="#ffe226"/>
      <stop offset=".12" stop-color="#ffdb27"/>
      <stop offset=".29" stop-color="#ffc82a"/>
      <stop offset=".5" stop-color="#ffa930"/>
      <stop offset=".73" stop-color="#ff7e37"/>
      <stop offset=".79" stop-color="#ff7139"/>
    </radialGradient>
    <radialGradient id="radial-gradient-7" cx="-7251.61" cy="-1919.79" fx="-7251.61" fy="-1919.79" r="1203.31" gradientTransform="translate(7819.89 -1893.09) scale(.98 -.98)" gradientUnits="userSpaceOnUse">
      <stop offset=".11" stop-color="#fff44f"/>
      <stop offset=".46" stop-color="#ff980e"/>
      <stop offset=".62" stop-color="#ff5634"/>
      <stop offset=".72" stop-color="#ff3647"/>
      <stop offset=".9" stop-color="#e31587"/>
    </radialGradient>
    <radialGradient id="radial-gradient-8" cx="-2409.92" cy="4175.11" fx="-2409.92" fy="4175.11" r="881.34" gradientTransform="translate(-1820.09 2695.2) rotate(83.98) scale(.98 -.64) skewX(-.01)" gradientUnits="userSpaceOnUse">
      <stop offset="0" stop-color="#fff44f"/>
      <stop offset=".06" stop-color="#ffe847"/>
      <stop offset=".17" stop-color="#ffc830"/>
      <stop offset=".3" stop-color="#ff980e"/>
      <stop offset=".36" stop-color="#ff8b16"/>
      <stop offset=".46" stop-color="#ff672a"/>
      <stop offset=".57" stop-color="#ff3647"/>
      <stop offset=".74" stop-color="#e31587"/>
    </radialGradient>
    <radialGradient id="radial-gradient-9" cx="-7475.76" cy="-2205.08" fx="-7475.76" fy="-2205.08" r="751.12" gradientTransform="translate(7819.89 -1893.09) scale(.98 -.98)" gradientUnits="userSpaceOnUse">
      <stop offset=".14" stop-color="#fff44f"/>
      <stop offset=".48" stop-color="#ff980e"/>
      <stop offset=".59" stop-color="#ff5634"/>
      <stop offset=".66" stop-color="#ff3647"/>
      <stop offset=".9" stop-color="#e31587"/>
    </radialGradient>
    <radialGradient id="radial-gradient-10" cx="-7282.18" cy="-2245.83" fx="-7282.18" fy="-2245.83" r="822.14" gradientTransform="translate(7819.89 -1893.09) scale(.98 -.98)" gradientUnits="userSpaceOnUse">
      <stop offset=".09" stop-color="#fff44f"/>
      <stop offset=".23" stop-color="#ffe141"/>
      <stop offset=".51" stop-color="#ffaf1e"/>
      <stop offset=".63" stop-color="#ff980e"/>
    </radialGradient>
    <linearGradient id="linear-gradient-2" x1="833.01" y1="-10688.89" x2="275.44" y2="-11246.57" gradientTransform="translate(-6.02 -10263.53) scale(.98 -.98)" gradientUnits="userSpaceOnUse">
      <stop offset=".17" stop-color="#fff44f" stop-opacity=".8"/>
      <stop offset=".27" stop-color="#fff44f" stop-opacity=".63"/>
      <stop offset=".49" stop-color="#fff44f" stop-opacity=".22"/>
      <stop offset=".6" stop-color="#fff44f" stop-opacity="0"/>
    </linearGradient>
  </defs>
  <g class="cls-14">
    <g id="Arcade">
      <rect class="cls-4" y="0" width="1024" height="1024" rx="143.49" ry="143.49"/>
      <g>
        <path class="cls-1" d="M870.94,380.62c-16.84-40.54-50.99-84.31-77.73-98.15,19.07,36.96,32.31,76.65,39.24,117.66l.07.65c-43.81-109.26-118.07-153.38-178.75-249.33-3.07-4.85-6.14-9.72-9.13-14.85-1.71-2.93-3.08-5.57-4.27-8-2.52-4.88-4.46-10.03-5.78-15.36,0-.51-.37-.94-.88-1-.24-.07-.49-.07-.73,0-.05,0-.13.09-.19.11s-.19.11-.28.15l.15-.26c-97.32,57.03-130.36,162.59-133.36,215.41-38.88,2.67-76.05,17-106.67,41.13-3.19-2.71-6.53-5.24-10-7.58-8.83-30.93-9.2-63.66-1.09-94.78-35.74,17.33-67.5,41.89-93.26,72.14h-.18c-15.36-19.48-14.28-83.71-13.4-97.13-4.54,1.83-8.88,4.13-12.94,6.87-13.56,9.68-26.23,20.55-37.87,32.47-13.27,13.46-25.38,28.01-36.22,43.49v.06-.07c-24.91,35.33-42.58,75.26-51.98,117.46l-.52,2.56c-.73,3.41-3.36,20.5-3.81,24.21,0,.29-.06.56-.09.85-3.39,17.64-5.49,35.51-6.29,53.46v2c.38,214.18,174.17,387.5,388.17,387.12,188.2-.33,348.95-135.96,381.1-321.55.65-5,1.18-9.96,1.76-15.01,7.98-66.02-.66-132.98-25.13-194.8l.04.06ZM424.37,684.18c1.81.87,3.51,1.81,5.37,2.64l.27.17c-1.88-.9-3.76-1.84-5.64-2.81ZM832.53,400.89v-.37l.07.41-.07-.04Z"/>
        <path class="cls-2" d="M870.94,380.62c-16.84-40.54-50.99-84.31-77.73-98.15,19.07,36.96,32.31,76.65,39.24,117.66v.37l.07.41c29.87,85.54,25.55,179.32-12.06,261.74-44.41,95.36-151.86,193.1-320.11,188.3-181.75-5.15-341.9-140.17-371.79-316.97-5.45-27.88,0-42.02,2.74-64.68-3.74,17.6-5.82,35.52-6.23,53.51v2c.38,214.18,174.17,387.5,388.17,387.12,188.2-.33,348.95-135.96,381.1-321.55.65-5,1.18-9.96,1.76-15.01,7.98-66.02-.66-132.98-25.13-194.8l-.04.05Z"/>
        <path class="cls-5" d="M870.94,380.62c-16.84-40.54-50.99-84.31-77.73-98.15,19.07,36.96,32.31,76.65,39.24,117.66v.37l.07.41c29.87,85.54,25.55,179.32-12.06,261.74-44.41,95.36-151.86,193.1-320.11,188.3-181.75-5.15-341.9-140.17-371.79-316.97-5.45-27.88,0-42.02,2.74-64.68-3.74,17.6-5.82,35.52-6.23,53.51v2c.38,214.18,174.17,387.5,388.17,387.12,188.2-.33,348.95-135.96,381.1-321.55.65-5,1.18-9.96,1.76-15.01,7.98-66.02-.66-132.98-25.13-194.8l-.04.05Z"/>
        <path class="cls-6" d="M682.6,426.15c.84.59,1.62,1.18,2.41,1.77-9.73-17.27-21.85-33.09-35.99-46.97-120.46-120.56-31.56-261.34-16.58-268.54l.15-.22c-97.32,57.03-130.36,162.59-133.36,215.41,4.52-.31,9-.69,13.62-.69,70.29.14,135.1,38.02,169.75,99.22v.02Z"/>
        <path class="cls-7" d="M513.05,450.26c-.64,9.65-34.69,42.91-46.6,42.91-110.17,0-128.06,66.71-128.06,66.71,4.88,56.17,43.99,102.45,91.26,126.87,2.16,1.12,4.35,2.13,6.54,3.12,3.79,1.68,7.58,3.24,11.38,4.66,16.23,5.75,33.22,9.03,50.42,9.74,193.14,9.06,230.53-231.12,91.16-300.86,32.88-4.28,66.17,3.81,93.42,22.7-34.65-61.2-99.46-99.09-169.75-99.22-4.6,0-9.1.38-13.62.69-38.88,2.67-76.05,17-106.67,41.13,5.91,5,12.58,11.69,26.62,25.54,26.29,25.92,93.72,52.78,93.87,55.93l.02.08Z"/>
        <path class="cls-11" d="M513.05,450.26c-.64,9.65-34.69,42.91-46.6,42.91-110.17,0-128.06,66.71-128.06,66.71,4.88,56.17,43.99,102.45,91.26,126.87,2.16,1.12,4.35,2.13,6.54,3.12,3.79,1.68,7.58,3.24,11.38,4.66,16.23,5.75,33.22,9.03,50.42,9.74,193.14,9.06,230.53-231.12,91.16-300.86,32.88-4.28,66.17,3.81,93.42,22.7-34.65-61.2-99.46-99.09-169.75-99.22-4.6,0-9.1.38-13.62.69-38.88,2.67-76.05,17-106.67,41.13,5.91,5,12.58,11.69,26.62,25.54,26.29,25.92,93.72,52.78,93.87,55.93l.02.08Z"/>
        <path class="cls-8" d="M374.49,355.91c3.14,2,5.73,3.74,8,5.31-8.83-30.93-9.2-63.66-1.09-94.78-35.74,17.33-67.5,41.89-93.26,72.14,1.89-.05,58.09-1.06,86.35,17.33Z"/>
        <path class="cls-12" d="M128.5,534c29.9,176.79,190.04,311.87,371.79,316.97,168.25,4.76,275.72-92.99,320.11-188.3,37.61-82.42,41.93-176.2,12.06-261.74v-.37c0-.29-.06-.46,0-.37l.07.65c13.75,89.82-31.9,176.79-103.27,235.73l-.22.5c-139.06,113.36-272.12,68.38-299.01,50.03-1.88-.9-3.76-1.84-5.64-2.81-81.07-38.78-114.57-112.66-107.37-176.09-39.31.58-75.28-22.06-91.78-57.78,43.27-26.53,97.2-28.7,142.46-5.72,45.88,20.84,98.08,22.9,145.46,5.72-.15-3.15-67.58-30.02-93.87-55.93-14.05-13.86-20.71-20.53-26.62-25.54-3.19-2.71-6.53-5.24-10-7.58-2.3-1.57-4.89-3.27-8-5.31-28.26-18.39-84.47-17.38-86.32-17.33h-.18c-15.36-19.48-14.28-83.71-13.4-97.13-4.54,1.83-8.88,4.13-12.94,6.87-13.56,9.68-26.23,20.55-37.87,32.47-13.31,13.42-25.48,27.94-36.37,43.39v.06-.07c-24.91,35.33-42.58,75.26-51.98,117.46-.19.79-13.96,61.02-7.17,92.26l.07-.02Z"/>
        <path class="cls-10" d="M649.01,380.92c14.15,13.9,26.26,29.74,35.99,47.03,2.13,1.61,4.12,3.21,5.81,4.76,87.84,81.04,41.82,195.6,38.39,203.71,71.36-58.84,116.97-145.88,103.27-235.73-43.83-109.36-118.17-153.48-178.75-249.43-3.07-4.85-6.14-9.72-9.13-14.85-1.71-2.93-3.08-5.57-4.27-8-2.52-4.88-4.46-10.03-5.78-15.36,0-.51-.37-.94-.88-1-.24-.07-.49-.07-.73,0-.05,0-.13.09-.19.11s-.19.11-.28.15c-14.99,7.11-103.87,147.98,16.6,268.44l-.05.17Z"/>
        <path class="cls-9" d="M690.79,432.75c-1.69-1.55-3.68-3.15-5.81-4.76-.79-.59-1.57-1.18-2.41-1.77-27.25-18.89-60.55-26.98-93.42-22.7,139.36,69.74,101.97,309.86-91.16,300.86-17.2-.71-34.19-3.99-50.42-9.74-3.79-1.42-7.58-2.97-11.38-4.66-2.19-1-4.38-2-6.54-3.12l.27.17c26.93,18.4,159.95,63.35,299.01-50.03l.22-.5c3.47-8.1,49.5-122.67-38.39-203.71l.02-.04Z"/>
        <path class="cls-3" d="M338.4,559.82s17.88-66.71,128.06-66.71c11.91,0,45.99-33.27,46.6-42.91-47.37,17.17-99.58,15.12-145.46-5.72-45.26-22.97-99.19-20.81-142.46,5.72,16.5,35.72,52.47,58.36,91.78,57.78-7.18,63.4,26.31,137.27,107.37,176.09,1.81.87,3.51,1.81,5.37,2.64-47.32-24.46-86.38-70.73-91.26-126.87v-.03Z"/>
        <path class="cls-13" d="M870.94,380.62c-16.84-40.54-50.99-84.31-77.73-98.15,19.07,36.96,32.31,76.65,39.24,117.66l.07.65c-43.81-109.26-118.07-153.38-178.75-249.33-3.07-4.85-6.14-9.72-9.13-14.85-1.71-2.93-3.08-5.57-4.27-8-2.52-4.88-4.46-10.03-5.78-15.36,0-.51-.37-.94-.88-1-.24-.07-.49-.07-.73,0-.05,0-.13.09-.19.11s-.19.11-.28.15l.15-.26c-97.32,57.03-130.36,162.59-133.36,215.41,4.52-.31,9-.69,13.62-.69,70.29.14,135.1,38.02,169.75,99.22-27.25-18.89-60.55-26.98-93.42-22.7,139.36,69.74,101.97,309.86-91.16,300.86-17.2-.71-34.19-3.99-50.42-9.74-3.79-1.42-7.58-2.97-11.38-4.66-2.19-1-4.38-2-6.54-3.12l.27.17c-1.88-.9-3.76-1.84-5.64-2.81,1.81.87,3.51,1.81,5.37,2.64-47.32-24.47-86.38-70.74-91.26-126.87,0,0,17.88-66.71,128.06-66.71,11.91,0,45.99-33.27,46.6-42.91-.15-3.15-67.58-30.02-93.87-55.93-14.05-13.86-20.71-20.53-26.62-25.54-3.19-2.71-6.53-5.24-10-7.58-8.83-30.93-9.2-63.66-1.09-94.78-35.74,17.33-67.5,41.89-93.26,72.14h-.18c-15.36-19.48-14.28-83.71-13.4-97.13-4.54,1.83-8.88,4.13-12.94,6.87-13.56,9.68-26.23,20.55-37.87,32.47-13.27,13.46-25.38,28.01-36.22,43.49v.06-.07c-24.91,35.33-42.58,75.26-51.98,117.46l-.52,2.56c-.73,3.41-4,20.74-4.47,24.46-2.99,17.89-4.9,35.94-5.72,54.06v2c.38,214.18,174.17,387.5,388.17,387.12,188.2-.33,348.95-135.96,381.1-321.55.65-5,1.18-9.96,1.76-15.01,7.98-66.02-.66-132.98-25.13-194.8l.02-.02ZM832.5,400.54l.07.41-.07-.41Z"/>
      </g>
    </g>
  </g>
</svg>